<svg width="1440" height="639" viewBox="0 0 1440 639" fill="none" xmlns="http://www.w3.org/2000/svg">
<circle cx="83.8014" cy="265.801" r="100.83" transform="rotate(-67.4364 83.8014 265.801)" fill="#012EE3"/>
<path d="M148.676 297.888C129.401 308.146 127.474 310.042 116.881 329.174C106.623 309.898 104.727 307.971 85.595 297.378C104.87 287.12 106.797 285.224 117.391 266.092C127.648 285.367 129.545 287.294 148.676 297.888Z" fill="white"/>
<circle cx="237.027" cy="384.027" r="100.83" transform="rotate(-100.864 237.027 384.027)" fill="#012EE3"/>
<path d="M308.846 375.067C298.41 394.247 297.846 396.891 299.545 418.694C280.365 408.258 277.721 407.694 255.918 409.392C266.354 390.213 266.918 387.569 265.22 365.766C284.399 376.202 287.043 376.766 308.846 375.067Z" fill="white"/>
<circle cx="1103.57" cy="495.574" r="100.83" transform="rotate(-134.015 1103.57 495.574)" fill="#012EE3"/>
<path d="M1158.8 448.798C1160.56 470.563 1161.53 473.085 1174.87 490.41C1153.11 492.161 1150.59 493.135 1133.26 506.48C1131.51 484.715 1130.54 482.193 1117.19 464.868C1138.96 463.117 1141.48 462.143 1158.8 448.798Z" fill="white"/>
<circle cx="1475.03" cy="118.027" r="100.83" transform="rotate(-100.864 1475.03 118.027)" fill="#012EE3"/>
<circle cx="1376.51" cy="228.508" r="100.83" transform="rotate(52.0815 1376.51 228.508)" fill="#012EE3"/>
<path d="M1316.62 269.153C1317.19 247.326 1316.49 244.715 1305.06 226.07C1326.89 226.64 1329.5 225.94 1348.15 214.511C1347.58 236.338 1348.28 238.949 1359.71 257.594C1337.88 257.023 1335.27 257.724 1316.62 269.153Z" fill="white"/>
</svg>
