<svg width="222" height="35" viewBox="0 0 222 35" fill="none" xmlns="http://www.w3.org/2000/svg">
<g clip-path="url(#clip0_79_414)">
<path d="M17.4126 35C27.0294 35 34.8253 27.165 34.8253 17.5C34.8253 7.83502 27.0294 0 17.4126 0C7.7959 0 0 7.83502 0 17.5C0 27.165 7.7959 35 17.4126 35Z" fill="#3C72FF"/>
<path d="M44.625 30.3878V25.8247H46.6505V10.38H44.625V5.85136H57.6539C63.4516 5.85136 66.211 8.02964 66.211 11.8552C66.211 14.8054 65.4086 16.2412 62.7862 17.2935C65.301 17.9966 67.395 19.8553 67.395 23.2629C67.395 28.2144 64.6356 30.3878 57.8936 30.3878H44.6201H44.625ZM53.8817 10.4833V15.7495H56.01C57.8594 15.7495 58.3829 14.7317 58.3829 13.0451C58.3829 11.3585 57.4044 10.4833 56.0785 10.4833H53.8768H53.8817ZM56.6754 25.8247C58.1432 25.8247 59.5033 24.7036 59.5033 22.8056C59.5033 21.0157 58.4905 19.7176 56.5678 19.7176H53.8768V25.8247H56.6705H56.6754Z" fill="white"/>
<path d="M78.4717 30.3878H68.2708V25.7903H69.7728V8.59019H68.305V4.06153H76.4071V25.7903H78.4669V30.3878H78.4717Z" fill="white"/>
<path d="M79.1714 12.8337H87.6257V21.296C87.6257 24.3151 88.0807 25.7214 89.5094 25.7214C90.7325 25.7214 91.711 24.6347 91.711 23.0514V17.4705H89.4066V12.8386H98.453V25.7214H100.165V30.3878H93.5653L92.621 28.1751C91.8529 29.0552 90.6298 30.8795 87.66 30.8795C82.3858 30.8795 80.6392 28.1406 80.6392 22.3139V17.4705H79.1714V12.8386V12.8337Z" fill="white"/>
<path d="M118.742 27.9636C116.159 30.2107 113.365 31.0171 109.73 31.0171C105.4 31.0171 100.508 28.2439 100.508 21.5025C100.508 15.7446 104.627 12.3419 109.902 12.3419C114.055 12.3419 117.235 14.4809 118.248 17.4312C118.669 18.6604 119.051 21.3648 118.317 23.3661H107.313C107.524 24.3151 107.979 26.2426 110.909 26.2426C112.098 26.2426 113.913 26.1394 115.797 24.561L118.733 27.9636H118.742ZM107.431 19.8897H112.705C112.671 18.5572 112.353 17.082 110.122 17.082C107.891 17.082 107.504 19.0145 107.431 19.8897Z" fill="white"/>
<path d="M131.771 8.62461H130.166V4.06153H138.861V25.8247H140.539V30.3878H132.363L131.771 29.0896C131.316 29.5125 129.78 30.7024 127.368 30.7024C122.446 30.7024 119.266 26.3164 119.266 21.4337C119.266 15.956 123.072 12.4845 127.368 12.4845C129.848 12.4845 131.106 13.3991 131.771 13.8171V8.6197V8.62461ZM129.296 25.7558C130.656 25.7558 131.913 24.0348 131.776 21.2616C131.776 18.8719 130.587 17.0476 129.261 17.0476C127.794 17.0476 126.781 18.7686 126.781 21.4337C126.781 23.5431 127.759 25.7509 129.296 25.7509V25.7558Z" fill="white"/>
<path d="M141.102 21.5419C141.136 15.6807 145.852 12.4157 150.671 12.4157C156.19 12.4845 160.275 15.8183 160.378 21.6845C160.447 27.5112 156.151 30.845 150.843 30.845C145.847 30.845 141.028 27.7571 141.097 21.5419H141.102ZM153.22 21.6795C153.22 19.0489 152.315 17.0083 150.671 16.9739C149.311 16.9739 148.259 19.0096 148.259 21.5714C148.259 24.4528 149.375 26.3459 150.843 26.3459C152.31 26.3459 153.216 24.3102 153.216 21.6746L153.22 21.6795Z" fill="white"/>
<path d="M160.941 12.8337H162.829V9.60312L169.258 7.53301V12.8337H172.575V17.3967H169.258V23.6464C169.258 24.8412 169.014 26.4541 170.374 26.4541C170.829 26.4541 171.91 26.1394 172.575 25.8591V30.3533C171.528 30.7762 169.151 31.0221 168.348 31.0221C163.108 31.0221 162.937 28.1455 162.829 23.6513V17.4017H160.941V12.8386V12.8337Z" fill="white"/>
<path d="M209.353 30.3878H195.345V25.7903H198.663L197.929 23.4005H190.771L190.037 25.7903H192.762V30.3878H181.656V25.7903H184.034L188.75 10.38H187.317V5.85136H200.727L206.907 25.7903H209.353V30.3878ZM192.062 19.1915H196.637L194.333 11.6093L192.062 19.1915Z" fill="white"/>
<path d="M210.405 5.85136H222V10.4833H219.833V25.7165H222V30.3828H210.405V25.7165H212.606V10.4833H210.405V5.85136Z" fill="white"/>
<path d="M23.7681 19.2013C21.7426 15.4496 21.3707 15.0759 17.6328 13.0353C21.3658 10.9996 21.7377 10.6259 23.7681 6.86921C25.7936 10.621 26.1654 10.9947 29.9034 13.0353C26.1703 15.0709 25.7985 15.4446 23.7681 19.2013Z" fill="white"/>
</g>
<defs>
<clipPath id="clip0_79_414">
<rect width="222" height="35" fill="white"/>
</clipPath>
</defs>
</svg>
