<svg width="550" height="390" viewBox="0 0 550 390" fill="none" xmlns="http://www.w3.org/2000/svg">
<g clip-path="url(#clip0_79_499)">
<path d="M0 30C0 13.4315 13.4315 0 30 0H520C536.569 0 550 13.4315 550 30V360C550 376.569 536.569 390 520 390H30C13.4315 390 0 376.569 0 360V30Z" fill="#3CDEFF"/>
<path d="M651.631 -35.0424C629.006 -55.0909 597.809 -42.4867 577.386 -18.3387C556.963 5.80923 543.781 39.2778 527.185 68.4634C510.589 97.6694 487.742 124.367 460.861 125.142C431.024 125.978 402.148 94.6509 373.508 106.235C339.947 119.798 325.686 185.716 290.884 190.447C272.027 192.997 253.037 175.559 234.86 182.942C208.496 193.649 204.358 246.106 180.906 265.91C164.531 279.738 143.369 273.823 125.266 265.033C107.163 256.222 88.5279 244.76 69.5676 248.839C40.0558 255.202 20.2532 296.788 -8.74133 306.721C-39.0807 317.102 -70.4545 290.2 -101.429 295.829C-121.128 299.399 -139.232 317 -148.305 341.392C-157.394 365.785 -157.217 396.317 -147.847 420.526L667 438.045L651.646 -35.0016L651.631 -35.0424Z" fill="url(#paint0_linear_79_499)"/>
<path d="M-59.0146 377.005H567.985V781.005H-59.0146V377.005Z" fill="url(#paint1_linear_79_499)"/>
<circle cx="324.339" cy="343.339" r="53.5" transform="rotate(1.46885 324.339 343.339)" fill="#012EE3"/>
<path d="M302.09 331.542L303.972 338.585C306.767 337.819 308.535 337.254 310.367 336.373L311.082 338.213C309.02 339.211 307.004 339.824 303.596 340.735L302.187 341.111L299.298 330.294L307.036 328.227L307.533 330.088L302.09 331.542ZM308.934 326.192L311.229 325.579L315.521 341.648L313.226 342.261L308.934 326.192ZM320.098 326.881L320.335 327.768C321.032 330.376 323.057 332.798 326.033 333.195L325.264 335.338C323.189 335.035 321.502 333.809 320.273 332.069C320.117 334.347 319.3 336.447 317.649 337.801L315.857 336.323C318.215 334.408 318.734 331.12 318.005 328.39L317.768 327.503L314.429 328.395L313.922 326.499L322.896 324.103L323.402 325.998L320.098 326.881ZM323.965 322.177L326.261 321.564L330.539 337.581L328.243 338.194L323.965 322.177ZM341.376 326.582L340.508 323.33L337.969 324.008L337.485 322.199L340.024 321.521L339.119 318.13L341.414 317.517L343.672 325.969L341.376 326.582ZM338.301 324.832L338.953 326.577C336.928 327.435 335.141 327.93 332.185 328.72L330.933 329.054L328.991 321.785L336.382 319.811L336.856 321.585L331.743 322.951L332.008 323.942L336.633 322.706L337.079 324.376L332.454 325.611L332.732 326.655C335.023 326.024 336.562 325.576 338.301 324.832ZM336.922 333.901L345.652 331.569L346.112 333.291L335.121 336.226L333.988 331.983L342.248 329.777L342.016 328.907L333.721 331.123L333.261 329.401L343.834 326.577L344.958 330.786L336.681 332.997L336.922 333.901ZM320.85 350.215L323.354 349.546L322.248 345.407L324.544 344.794L327.665 356.48L325.37 357.094L323.851 351.407L321.347 352.076L320.85 350.215ZM322.895 353.618L322.261 355.707C320.351 355.602 318.862 354.77 317.781 353.513C317.49 355.286 316.577 356.89 314.884 358.013L313.231 356.498C315.629 354.944 316.215 352.534 315.676 350.516L315.616 350.29L312.468 351.131L311.981 349.305L320.589 347.006L321.076 348.832L317.964 349.663L318.019 349.872C318.526 351.767 320.146 353.44 322.895 353.618ZM320 360.913L328.625 358.609L329.113 360.435L318.192 363.352L316.849 358.326L319.145 357.713L320 360.913ZM335.837 343.175L336.274 344.81L327.179 347.239L326.742 345.604L330.151 344.694L329.784 343.32L332.079 342.707L332.446 344.081L335.837 343.175ZM330.772 349.391C330.934 349.999 331.683 350.153 332.762 349.865C333.84 349.577 334.395 349.075 334.232 348.466C334.065 347.84 333.333 347.682 332.255 347.97C331.177 348.258 330.604 348.765 330.772 349.391ZM338.207 350.442L338.799 351.96C335.644 353.474 331.889 354.551 329.164 355.298L328.451 353.606C329.581 353.304 330.886 352.956 332.246 352.537L331.999 351.615C330.225 351.81 328.932 351.223 328.598 349.971C328.184 348.424 329.481 347.071 331.846 346.439C334.194 345.812 335.993 346.338 336.406 347.886C336.741 349.138 335.912 350.291 334.295 351.002L334.513 351.82C335.794 351.384 337.036 350.941 338.207 350.442ZM333.646 354.92L334.231 357.112L343.135 354.733L343.623 356.559L332.423 359.551L331.35 355.533L333.646 354.92ZM340.278 346.199L342.295 345.661L342.797 347.539L340.78 348.078L342.22 353.469L339.924 354.082L336.58 341.561L338.875 340.948L340.278 346.199Z" fill="white"/>
<circle cx="130.859" cy="120.859" r="61.2292" transform="rotate(30.0928 130.859 120.859)" fill="#012EE3"/>
<path d="M118.808 94.4275L116.589 93.6471C117.305 92.3023 117.621 91.2306 117.881 90.1637L109.031 88.0114L109.473 86.1924L120.632 88.9063L120.309 90.2355C119.998 91.5123 119.666 92.8765 118.808 94.4275ZM111.678 101.196C113.864 101.728 115.212 101.593 115.421 100.736C115.634 99.8613 114.498 99.1221 112.312 98.5903C110.143 98.0629 108.795 98.1981 108.582 99.0726C108.374 99.9296 109.509 100.669 111.678 101.196ZM112.733 96.8588C116.213 97.7053 118.171 99.4041 117.712 101.293C117.257 103.165 114.737 103.774 111.257 102.928C107.794 102.086 105.836 100.387 106.291 98.5154C106.75 96.6265 109.27 96.0166 112.733 96.8588ZM113.947 94.153L120.768 95.812L120.326 97.6309L105.826 94.1046L106.269 92.2856L111.638 93.5915L112.323 90.7756L114.632 91.3371L113.947 94.153ZM133.925 98.1043L131.707 97.3239C132.423 95.979 132.739 94.9074 132.999 93.8405L124.149 91.6881L124.591 89.8691L135.75 92.583L135.427 93.9123C135.116 95.1891 134.784 96.5533 133.925 98.1043ZM126.796 104.873C128.982 105.405 130.33 105.27 130.539 104.413C130.751 103.538 129.616 102.799 127.43 102.267C125.261 101.74 123.913 101.875 123.7 102.749C123.492 103.606 124.627 104.346 126.796 104.873ZM127.851 100.536C131.331 101.382 133.289 103.081 132.83 104.97C132.375 106.841 129.855 107.451 126.375 106.605C122.912 105.762 120.954 104.064 121.409 102.192C121.868 100.303 124.388 99.6933 127.851 100.536ZM129.065 97.8298L135.886 99.4887L135.443 101.308L120.944 97.7814L121.386 95.9624L126.756 97.2683L127.441 94.4524L129.749 95.0139L129.065 97.8298ZM138.71 94.3032L146.44 96.1834C145.241 101.116 142.601 104.734 136.21 106.107L135.445 103.994C140.036 103.017 142.433 100.933 143.633 97.4456L138.263 96.1397L138.71 94.3032ZM149.315 95.1041L151.641 95.6698L147.723 111.778L145.397 111.213L149.315 95.1041ZM160.265 105.103L158.072 104.292C158.701 102.851 159.055 101.697 159.307 100.739L153.308 99.2799L153.754 97.4435L162.027 99.4555L161.785 100.452C161.513 101.572 161.126 103.163 160.265 105.103ZM161.174 106.01L160.914 107.688C157.442 107.492 153.682 106.651 150.915 105.997L151.151 104.109C152.043 104.326 153.04 104.569 154.094 104.806L154.856 101.676L157.112 102.224L156.372 105.268C157.98 105.585 159.619 105.854 161.174 106.01ZM155.094 108.161L154.362 111.17L163.299 113.343L162.853 115.18L151.607 112.445L152.785 107.6L155.094 108.161ZM165.004 104.125L166.928 104.593L166.464 106.5L164.54 106.032L163.264 111.279L160.956 110.717L163.891 98.649L166.199 99.2105L165.004 104.125ZM89.4565 111.524L88.7271 112.847L91.8054 113.595L91.7652 112.085C91.6904 110.64 91.7022 109.069 91.6752 107.58L91.5878 107.559C90.9109 108.895 90.1688 110.27 89.4565 111.524ZM83.3371 117.186L90.6342 105.234L93.6775 105.974L94.6882 119.946L91.9772 119.287L91.8759 115.743L87.6783 114.722L85.9606 117.824L83.3371 117.186ZM95.2316 120.079L98.3836 107.118L100.972 107.748L97.8201 120.708L95.2316 120.079ZM110.497 123.236L110.846 121.801L104.76 120.321L104.411 121.755L110.497 123.236ZM111.272 120.052L111.646 118.513L113.937 119.07L112.342 125.629L101.673 123.035L103.268 116.476L105.559 117.033L105.185 118.572L111.272 120.052ZM105.622 113.955C106.812 114.244 107.843 113.735 108.137 112.528C108.43 111.322 107.748 110.396 106.558 110.107C105.386 109.822 104.355 110.331 104.062 111.537C103.768 112.744 104.451 113.67 105.622 113.955ZM113.904 109.152L116.213 109.713L114.107 118.371L111.799 117.809L112.585 114.574L110.032 113.953C109.169 115.595 107.236 116.385 105.155 115.879C102.741 115.292 101.313 113.24 101.858 111.001C102.402 108.763 104.613 107.596 107.026 108.183C109.073 108.681 110.432 110.252 110.47 112.077L113.041 112.702L113.904 109.152ZM127.113 118.163L127.811 115.294L121.182 113.682L120.485 116.55L127.113 118.163ZM130.51 114.024L128.927 120.53L117.769 117.816L119.351 111.31L130.51 114.024ZM130.259 122.67L129.813 124.506L123.621 123L122.341 128.265L120.032 127.703L121.313 122.439L115.226 120.959L115.673 119.122L130.259 122.67ZM146.392 119.202L145.946 121.038L132.671 117.81L133.117 115.973L138.592 117.305L139.043 115.451L141.351 116.012L140.901 117.866L146.392 119.202ZM136.149 125.825L135.656 127.854L138.664 128.585L139.158 126.557C138.673 126.494 138.157 126.406 137.615 126.274C137.09 126.146 136.591 125.988 136.149 125.825ZM138.713 121.836C136.684 121.342 135.51 121.52 135.289 122.43C135.072 123.322 136.033 124.018 138.062 124.512C140.091 125.005 141.264 124.827 141.481 123.935C141.702 123.026 140.741 122.329 138.713 121.836ZM140.938 129.138L144.488 130.002L144.033 131.873L129.446 128.326L129.901 126.454L133.382 127.301L134.024 124.66C133.068 123.871 132.655 122.9 132.911 121.851C133.387 119.892 135.767 119.248 139.142 120.069C142.518 120.89 144.318 122.551 143.842 124.51C143.591 125.542 142.796 126.219 141.584 126.48L140.938 129.138ZM154.928 121.074C152.602 120.508 151.419 120.573 151.245 121.29C151.062 122.042 152.087 122.625 154.414 123.191C156.757 123.761 157.936 123.714 158.119 122.962C158.293 122.245 157.272 121.644 154.928 121.074ZM154.005 124.87C150.332 123.976 148.415 122.491 148.849 120.707C149.279 118.941 151.668 118.484 155.341 119.378C159.031 120.275 160.944 121.778 160.515 123.544C160.081 125.328 157.696 125.767 154.005 124.87ZM154.519 128.774L154.792 127.654L152.063 126.991L151.791 128.11L154.519 128.774ZM160.703 129.092L157.1 128.216L156.828 129.335L158.647 129.777L157.639 133.923L148.824 131.779L148.603 132.688L157.837 134.934L157.416 136.666L145.89 133.863L146.92 129.63L155.752 131.778L155.961 130.921L147.093 128.764L147.506 127.068L149.482 127.549L149.754 126.429L146.116 125.544L146.559 123.725L161.146 127.273L160.703 129.092ZM172.389 125.247L171.947 127.066L162.467 124.76L162.91 122.941L166.513 123.818L166.925 122.121L169.234 122.682L168.821 124.379L172.389 125.247ZM164.587 129.147C164.378 130.004 164.967 130.629 166.017 130.884C167.066 131.14 167.876 130.855 168.085 129.998C168.285 129.176 167.696 128.551 166.646 128.296C165.597 128.041 164.787 128.325 164.587 129.147ZM166.78 132.774L166.469 134.051C167.728 134.283 168.991 134.498 170.188 134.604L169.959 136.308C166.404 136.147 162.784 135.267 160.055 134.603L160.23 132.663C161.385 132.944 162.714 133.267 164.139 133.577L164.471 132.213C162.877 131.455 162.039 130.102 162.4 128.616C162.839 126.814 164.763 125.985 167.072 126.547C169.38 127.108 170.709 128.728 170.271 130.53C169.909 132.016 168.544 132.833 166.78 132.774ZM176.436 131.307L175.972 133.213L173.961 132.724L172.102 140.367L169.793 139.806L173.711 123.697L176.02 124.259L174.425 130.817L176.436 131.307ZM113.042 136.048L113.544 133.984L110.238 133.18L109.736 135.244L113.042 136.048ZM107.445 134.687L107.947 132.623L105.901 132.125L106.318 130.411L118.298 133.325L117.881 135.039L115.835 134.541L115.333 136.605L117.257 137.073L116.84 138.787L105.087 135.929L105.504 134.214L107.445 134.687ZM105.846 144.079L105.634 144.953L114.868 147.199L114.464 148.861L102.938 146.058L103.929 141.982L112.762 144.131L112.953 143.344L104.103 141.191L104.507 139.53L115.631 142.235L114.661 146.223L105.846 144.079ZM103.505 136.415L118.057 139.954L117.615 141.773L103.063 138.233L103.505 136.415ZM129.119 141.57L128.204 145.33L126.053 144.807L128.295 135.589L130.446 136.113L129.566 139.733L130.86 140.048L131.809 136.148L133.995 136.679L131.362 147.506L129.175 146.974L130.413 141.884L129.119 141.57ZM125.849 142.293L125.621 144.146C123.713 144.071 122.143 143.745 119.747 143.162L118.628 142.89L119.849 137.87L123.714 138.81L124.067 137.358L120.184 136.414L120.622 134.613L126.726 136.097L125.527 141.029L121.662 140.089L121.292 141.611C123.014 141.993 124.33 142.22 125.849 142.293ZM127.138 145.756L127.07 146.036C126.665 147.697 127.884 149.846 131.258 151.13L129.915 152.693C127.451 151.704 125.856 150.187 125.256 148.466C123.897 149.71 121.801 150.33 119.159 150.077L118.7 148.076C122.27 148.481 124.357 147.136 124.761 145.474L124.829 145.194L127.138 145.756ZM136.299 150.466L135.903 152.093L142.497 153.696L142.892 152.07L136.299 150.466ZM133.209 153.346L134.485 148.098L145.608 150.804L144.332 156.051L133.209 153.346ZM140.444 140.656L139.853 143.087L143.159 143.891L143.75 141.46L140.444 140.656ZM141.899 146.863L148.038 148.357L147.595 150.176L133.043 146.636L133.486 144.817L139.59 146.302L139.896 145.043L135.174 143.894L135.62 142.058L137.562 142.53L138.153 140.099L136.107 139.601L136.553 137.765L148.534 140.678L148.087 142.515L146.041 142.017L145.45 144.448L147.356 144.912L146.91 146.748L142.205 145.604L141.899 146.863Z" fill="white"/>
<circle cx="453.444" cy="165.443" r="53.5" transform="rotate(16.4235 453.444 165.443)" fill="#012EE3"/>
<path d="M434.503 153.914V157.748H432.289V148.208H434.503V151.988H435.727V147.902H437.977V158.27H435.727V153.914H434.503ZM431.821 149.594V151.43H423.757V149.594H426.619V148.082H428.959V149.594H431.821ZM426.349 154.85C426.349 155.624 426.943 156.056 427.825 156.056C428.707 156.056 429.283 155.624 429.283 154.85C429.283 154.076 428.707 153.662 427.825 153.662C426.943 153.662 426.349 154.076 426.349 154.85ZM431.389 154.85C431.389 156.56 429.913 157.748 427.825 157.748C425.719 157.748 424.243 156.56 424.243 154.85C424.243 153.14 425.719 151.97 427.825 151.97C429.913 151.97 431.389 153.14 431.389 154.85ZM432.361 162.716C434.575 162.716 435.691 162.338 435.691 161.474C435.691 160.61 434.575 160.232 432.361 160.232C430.147 160.232 429.031 160.61 429.031 161.474C429.031 162.338 430.147 162.716 432.361 162.716ZM432.361 158.45C435.925 158.45 438.067 159.548 438.067 161.474C438.067 163.4 435.925 164.48 432.361 164.48C428.797 164.48 426.655 163.4 426.655 161.474C426.655 159.548 428.797 158.45 432.361 158.45ZM448.406 151.898H450.89V147.902H453.266V157.766H450.89V153.824H448.406V151.898ZM449.396 155.462L448.244 157.316C446.444 156.722 445.202 155.552 444.482 154.094C443.762 155.768 442.448 157.118 440.522 157.766L439.316 155.894C441.944 154.976 443.15 152.87 443.222 150.8H439.964V148.892H448.874V150.8H445.652C445.724 152.69 446.876 154.634 449.396 155.462ZM447.668 162.698C449.828 162.698 450.962 162.248 450.962 161.312C450.962 160.376 449.828 159.926 447.668 159.926C445.49 159.926 444.356 160.376 444.356 161.312C444.356 162.248 445.49 162.698 447.668 162.698ZM447.668 158.126C451.178 158.126 453.338 159.296 453.338 161.312C453.338 163.328 451.178 164.498 447.668 164.498C444.14 164.498 441.98 163.328 441.98 161.312C441.98 159.296 444.14 158.126 447.668 158.126ZM466.466 162.392V160.916H460.202V162.392H466.466ZM466.466 159.116V157.532H468.824V164.282H457.844V157.532H460.202V159.116H466.466ZM459.536 154.526C460.76 154.526 461.642 153.788 461.642 152.546C461.642 151.304 460.76 150.566 459.536 150.566C458.33 150.566 457.448 151.304 457.448 152.546C457.448 153.788 458.33 154.526 459.536 154.526ZM466.448 147.902H468.824V156.812H466.448V153.482H463.82C463.37 155.282 461.678 156.506 459.536 156.506C457.052 156.506 455.18 154.85 455.18 152.546C455.18 150.242 457.052 148.586 459.536 148.586C461.642 148.586 463.334 149.792 463.802 151.556H466.448V147.902ZM481.413 153.536V150.584H474.591V153.536H481.413ZM483.735 148.712V155.408H472.251V148.712H483.735ZM485.535 157.172V159.062H479.163V164.48H476.787V159.062H470.523V157.172H485.535ZM437.711 173.448V174.366C437.711 176.886 439.025 179.82 441.743 181.08L440.429 182.952C438.593 182.106 437.297 180.45 436.559 178.488C435.821 180.648 434.489 182.466 432.599 183.366L431.267 181.476C433.985 180.216 435.335 177.102 435.335 174.366V173.448H431.897V171.486H441.005V173.448H437.711ZM447.017 176.22V178.182H444.605V186.48H442.229V169.902H444.605V176.22H447.017ZM454.637 184.698C456.851 184.698 457.985 184.32 457.985 183.456C457.985 182.592 456.851 182.196 454.637 182.196C452.423 182.196 451.289 182.592 451.289 183.456C451.289 184.32 452.423 184.698 454.637 184.698ZM454.637 180.396C458.219 180.396 460.397 181.494 460.397 183.456C460.397 185.4 458.219 186.498 454.637 186.498C451.055 186.498 448.895 185.4 448.895 183.456C448.895 181.494 451.055 180.396 454.637 180.396ZM455.879 177.696H462.197V179.586H447.203V177.696H453.503V176.328H449.021V170.604H460.397V172.494H451.379V174.438H460.487V176.328H455.879V177.696ZM472.626 171.72V173.592H462.87V171.72H466.578V169.974H468.954V171.72H472.626ZM465.966 177.354C465.966 178.236 466.686 178.704 467.766 178.704C468.846 178.704 469.566 178.236 469.566 177.354C469.566 176.508 468.846 176.04 467.766 176.04C466.686 176.04 465.966 176.508 465.966 177.354ZM468.954 180.36V181.674C470.232 181.602 471.51 181.512 472.698 181.332L472.878 183.042C469.386 183.726 465.66 183.726 462.852 183.726L462.564 181.8C463.752 181.8 465.12 181.8 466.578 181.764V180.36C464.85 180 463.716 178.884 463.716 177.354C463.716 175.5 465.39 174.24 467.766 174.24C470.142 174.24 471.816 175.5 471.816 177.354C471.816 178.884 470.682 180 468.954 180.36ZM477.99 176.652V178.614H475.92V186.48H473.544V169.902H475.92V176.652H477.99Z" fill="white"/>
</g>
<rect x="0.5" y="0.5" width="549" height="389" rx="29.5" stroke="#DEE7FF"/>
<defs>
<linearGradient id="paint0_linear_79_499" x1="256" y1="-45" x2="256" y2="781.005" gradientUnits="userSpaceOnUse">
<stop stop-color="#428DFF"/>
<stop offset="0.47" stop-color="#27D5DD"/>
<stop offset="0.975" stop-color="#CAA0FF"/>
</linearGradient>
<linearGradient id="paint1_linear_79_499" x1="256" y1="-45" x2="256" y2="781.005" gradientUnits="userSpaceOnUse">
<stop stop-color="#428DFF"/>
<stop offset="0.47" stop-color="#27D5DD"/>
<stop offset="0.975" stop-color="#CAA0FF"/>
</linearGradient>
<clipPath id="clip0_79_499">
<rect width="550" height="390" rx="30" fill="white"/>
</clipPath>
</defs>
</svg>
