<svg width="587" height="833" viewBox="0 0 587 833" fill="none" xmlns="http://www.w3.org/2000/svg">
<g clip-path="url(#clip0_259_194)">
<g filter="url(#filter0_d_259_194)">
<rect width="587" height="833" rx="30" fill="#FAFAFA"/>
</g>
<path d="M689.646 74.9576C667.021 54.9091 635.824 67.5133 615.401 91.6613C594.977 115.809 581.795 149.278 565.2 178.463C548.604 207.669 525.757 234.367 498.876 235.142C469.039 235.978 440.163 204.651 411.523 216.235C377.962 229.798 363.701 295.716 328.898 300.447C310.042 302.997 291.052 285.559 272.875 292.942C246.511 303.649 242.373 356.106 218.92 375.91C202.546 389.738 181.384 383.823 163.281 375.033C145.178 366.222 126.543 354.76 107.582 358.839C78.0705 365.202 58.2679 406.788 29.2733 416.721C-1.06604 427.102 -32.4399 400.2 -63.4147 405.829C-83.1138 409.399 -101.217 427 -110.291 451.392C-119.379 475.785 -119.202 506.317 -109.833 530.526L705.015 548.045L689.66 74.9984L689.646 74.9576Z" fill="url(#paint0_linear_259_194)"/>
<path d="M-20.9999 487.005H606V891.005H-20.9999V487.005Z" fill="url(#paint1_linear_259_194)"/>
<path d="M486.147 509.074L458.455 522.705C450.742 526.502 444.5 532.743 440.705 540.455L427.074 568.147L413.443 540.455C409.646 532.742 403.404 526.5 395.692 522.705L368 509.074L395.692 495.443C403.406 491.646 409.647 485.404 413.443 477.692L427.074 450L440.705 477.692C444.502 485.406 450.743 491.647 458.455 495.443L486.147 509.074Z" fill="url(#paint2_linear_259_194)"/>
<path d="M618.63 620.815L574.183 642.693C561.803 648.788 551.785 658.805 545.693 671.183L523.815 715.63L501.937 671.183C495.842 658.803 485.825 648.785 473.447 642.693L429 620.815L473.447 598.937C485.827 592.842 495.845 582.825 501.937 570.447L523.815 526L545.693 570.447C551.788 582.827 561.805 592.845 574.183 598.937L618.63 620.815Z" fill="url(#paint3_linear_259_194)"/>
<path d="M54.284 143.8L53.744 145.582H57.362L56.84 143.8C56.39 142.36 55.994 140.884 55.598 139.39H55.508C55.13 140.902 54.716 142.36 54.284 143.8ZM50 151L54.392 137.734H56.804L61.196 151H58.982L57.866 147.22H53.258L52.124 151H50ZM62.5833 151V137.734H64.6713V151H62.5833ZM71.6049 137.104H78.9849C78.9849 141.316 76.1949 144.232 71.4969 145.564L70.7409 144.088C74.4669 143.08 76.6629 141.118 76.9869 138.616H71.6049V137.104ZM75.3309 147.472V150.694H82.2789V147.472H75.3309ZM73.5129 152.188V145.996H84.0969V152.188H73.5129ZM82.2429 136.114H84.0969V145.33H82.2429V141.694H79.0209V140.164H82.2429V136.114ZM94.9675 143.638L93.9775 145.042C92.5375 144.448 91.5295 143.35 90.9355 142.036C90.3415 143.53 89.2795 144.79 87.7315 145.474L86.7415 144.052C88.9195 143.062 90.0175 140.992 90.0175 139.138V137.068H91.8175V139.138C91.8175 140.956 92.8615 142.792 94.9675 143.638ZM89.5675 148.282V146.788H100.584V152.404H98.7295V148.282H89.5675ZM98.8195 136.132H100.584V145.978H98.8195V141.748H97.1095V145.888H95.3635V136.402H97.1095V140.236H98.8195V136.132ZM104.38 145.348L103.534 143.908C105.946 143.242 107.368 141.55 107.458 139.642H103.948V138.148H107.476V136.276H109.33V138.148H112.876V139.642H109.33C109.438 141.478 110.878 143.098 113.272 143.746L112.444 145.186C110.536 144.646 109.132 143.494 108.412 142C107.71 143.566 106.306 144.772 104.38 145.348ZM109.33 144.826V147.526C110.752 147.454 112.192 147.328 113.542 147.112L113.686 148.462C110.104 149.182 106.216 149.2 103.336 149.2L103.102 147.67C104.38 147.67 105.91 147.67 107.476 147.616V144.826H109.33ZM114.532 136.114H116.404V152.422H114.532V136.114ZM128.895 143.836L127.977 145.276C126.177 144.646 124.881 143.368 124.179 141.802C123.459 143.548 122.091 144.952 120.165 145.618L119.211 144.16C121.731 143.296 123.207 141.154 123.207 138.958V138.634H119.769V137.14H128.463V138.634H125.079V138.94C125.079 140.956 126.465 142.99 128.895 143.836ZM121.731 148.138V146.644H132.693V152.386H130.839V148.138H121.731ZM130.839 136.114H132.693V145.834H130.839V141.73H127.995V140.2H130.839V136.114ZM145.183 138.004V139.498H135.517V138.004H139.441V136.186H141.295V138.004H145.183ZM138.217 143.35C138.217 144.34 139.099 144.952 140.377 144.952C141.655 144.952 142.519 144.34 142.519 143.35C142.519 142.342 141.655 141.73 140.377 141.73C139.099 141.73 138.217 142.342 138.217 143.35ZM141.295 146.302V147.814C142.681 147.742 144.067 147.652 145.363 147.454L145.507 148.822C142.033 149.434 138.271 149.47 135.481 149.47L135.229 147.94C136.471 147.94 137.929 147.94 139.441 147.886V146.302C137.641 145.996 136.471 144.898 136.471 143.35C136.471 141.514 138.055 140.308 140.377 140.308C142.681 140.308 144.265 141.514 144.265 143.35C144.265 144.898 143.095 146.014 141.295 146.302ZM150.439 142.918V144.448H148.135V152.386H146.281V136.114H148.135V142.918H150.439ZM156.227 137.842H163.931C163.931 142.684 161.987 146.788 156.407 149.488L155.417 148.012C159.683 145.96 161.699 143.098 162.023 139.354H156.227V137.842ZM166.865 136.132H168.719V152.386H166.865V136.132ZM184.539 140.452V141.946H173.433V136.438H175.287V140.452H184.539ZM178.815 150.91C181.191 150.91 182.541 150.352 182.541 149.362C182.541 148.336 181.191 147.814 178.815 147.814C176.439 147.814 175.107 148.336 175.107 149.362C175.107 150.352 176.439 150.91 178.815 150.91ZM178.815 146.356C182.307 146.356 184.413 147.454 184.413 149.362C184.413 151.252 182.307 152.35 178.815 152.35C175.341 152.35 173.217 151.252 173.217 149.362C173.217 147.454 175.341 146.356 178.815 146.356ZM171.507 143.584H186.213V145.096H171.507V143.584ZM195.05 137.05C198.434 137.05 201.026 138.886 201.026 141.64C201.026 144.412 198.434 146.23 195.05 146.23C191.648 146.23 189.074 144.412 189.074 141.64C189.074 138.886 191.648 137.05 195.05 137.05ZM195.05 138.58C192.638 138.58 190.874 139.768 190.874 141.64C190.874 143.512 192.638 144.7 195.05 144.7C197.444 144.7 199.226 143.512 199.226 141.64C199.226 139.768 197.444 138.58 195.05 138.58ZM187.706 148.804H202.43V150.334H187.706V148.804ZM212.167 148.948H218.629V150.478H203.905V148.948H210.313V146.176H205.687V140.938H215.047V138.76H205.651V137.266H216.883V142.414H207.505V144.682H217.243V146.176H212.167V148.948ZM227.152 143.8L226.612 145.582H230.23L229.708 143.8C229.258 142.36 228.862 140.884 228.466 139.39H228.376C227.998 140.902 227.584 142.36 227.152 143.8ZM222.868 151L227.26 137.734H229.672L234.064 151H231.85L230.734 147.22H226.126L224.992 151H222.868ZM235.451 151V137.734H237.539V151H235.451ZM249.495 137.482V140.146C249.495 143.134 251.151 146.122 253.707 147.274L252.627 148.75C250.755 147.868 249.333 146.068 248.595 143.872C247.857 146.23 246.417 148.156 244.455 149.11L243.357 147.562C245.949 146.392 247.641 143.278 247.641 140.146V137.482H249.495ZM255.003 136.114H256.875V152.422H255.003V136.114ZM262.058 139.57V146.986C263.93 146.968 265.406 146.878 267.08 146.536L267.242 148.066C265.28 148.444 263.606 148.516 261.32 148.516H260.24V138.058H266.252V139.57H262.058ZM271.796 136.114H273.56V152.368H271.796V144.052H269.87V151.576H268.124V136.456H269.87V142.54H271.796V136.114ZM286.932 138.904V137.806H277.734V136.528H288.768V140.11H279.588V141.262H289.056V142.558H277.77V138.904H286.932ZM279.462 149.686V150.928H289.308V152.206H277.626V148.48H286.986V147.328H277.59V146.05H288.822V149.686H279.462ZM275.88 143.584H290.622V144.952H275.88V143.584ZM298.138 139.57V146.986C300.01 146.968 301.486 146.878 303.16 146.536L303.322 148.066C301.36 148.444 299.686 148.516 297.4 148.516H296.32V138.058H302.332V139.57H298.138ZM307.876 136.114H309.64V152.368H307.876V144.052H305.95V151.576H304.204V136.456H305.95V142.54H307.876V136.114ZM323.48 136.114H325.352V152.422H323.48V136.114ZM312.842 137.464H314.678V141.604H318.8V137.464H320.654V148.552H312.842V137.464ZM314.678 143.08V147.058H318.8V143.08H314.678ZM332.911 147.364C334.225 147.364 335.179 146.464 335.179 145.096C335.179 143.728 334.225 142.828 332.911 142.828C331.597 142.828 330.643 143.728 330.643 145.096C330.643 146.464 331.597 147.364 332.911 147.364ZM332.911 141.298C335.233 141.298 336.943 142.882 336.943 145.096C336.943 147.328 335.233 148.894 332.911 148.894C330.571 148.894 328.879 147.328 328.879 145.096C328.879 142.882 330.571 141.298 332.911 141.298ZM333.811 136.384V138.634H337.609V140.146H328.087V138.634H331.957V136.384H333.811ZM343.297 142.666V144.214H340.795V152.404H338.923V136.132H340.795V142.666H343.297ZM349.362 137.626V140.47C349.362 143.098 350.352 145.852 352.53 147.22L351.486 148.66C350.01 147.76 349.038 146.176 348.48 144.358C347.904 146.356 346.842 148.066 345.276 149.02L344.142 147.616C346.446 146.248 347.562 143.332 347.562 140.56V137.626H349.362ZM353.178 141.82V136.438H354.924V151.63H353.178V143.332H350.784V141.82H353.178ZM356.49 136.132H358.254V152.386H356.49V136.132ZM365.866 145.348V148.876H369.97V145.33C369.34 145.492 368.638 145.564 367.918 145.564C367.198 145.564 366.496 145.492 365.866 145.348ZM367.918 138.526C365.452 138.526 363.742 139.606 363.742 141.316C363.742 143.044 365.452 144.124 367.918 144.124C370.366 144.124 372.076 143.044 372.076 141.316C372.076 139.606 370.366 138.526 367.918 138.526ZM371.824 148.876H375.298V150.388H360.574V148.876H364.012V144.646C362.716 143.926 361.942 142.756 361.942 141.316C361.942 138.724 364.444 137.068 367.918 137.068C371.374 137.068 373.894 138.724 373.894 141.316C373.894 142.756 373.12 143.908 371.824 144.646V148.876ZM54.086 169.442C54.086 171.206 55.832 172.322 58.262 172.322C60.674 172.322 62.42 171.206 62.42 169.442C62.42 167.678 60.674 166.562 58.262 166.562C55.832 166.562 54.086 167.678 54.086 169.442ZM59.18 176.876H65.642V178.388H50.918V176.876H57.326V173.762C54.356 173.492 52.286 171.854 52.286 169.442C52.286 166.796 54.806 165.086 58.262 165.086C61.7 165.086 64.238 166.796 64.238 169.442C64.238 171.854 62.15 173.51 59.18 173.78V176.876ZM80.9586 164.132V173.582H79.1946V164.132H80.9586ZM73.5426 171.692H76.1886V164.402H77.9346V173.51H76.1886V172.898H73.5426V171.692ZM71.3106 165.842C70.1766 165.842 69.4386 166.238 69.4386 166.922C69.4386 167.588 70.1766 167.984 71.3106 167.984C72.4626 167.984 73.2006 167.588 73.2006 166.922C73.2006 166.238 72.4626 165.842 71.3106 165.842ZM71.3106 169.244C69.1866 169.244 67.7646 168.362 67.7646 166.922C67.7646 165.464 69.1866 164.582 71.3106 164.582C73.4526 164.582 74.8566 165.464 74.8566 166.922C74.8566 168.362 73.4526 169.244 71.3106 169.244ZM70.4826 173.564V171.296C69.2586 171.35 68.1066 171.368 67.2066 171.368L67.0086 170C69.1866 170 72.7506 169.964 75.4146 169.55L75.5406 170.72C74.5146 170.954 73.3806 171.08 72.2646 171.17V173.564H70.4826ZM71.5626 178.928H81.4626V180.242H69.7446V176.534H79.1226V175.436H69.7086V174.158H80.9586V177.74H71.5626V178.928ZM83.8192 182.6L83.3512 181.43C84.5932 180.926 85.3132 180.008 85.3132 178.964C85.2412 178.982 85.1872 178.982 85.1152 178.982C84.3772 178.982 83.7292 178.514 83.7292 177.65C83.7292 176.84 84.3772 176.318 85.1692 176.318C86.1772 176.318 86.7712 177.164 86.7712 178.55C86.7712 180.44 85.6732 181.898 83.8192 182.6ZM95.5995 167.264V174.95C96.3195 174.932 97.0755 174.896 97.8135 174.86V167.264H95.5995ZM99.6135 167.264V174.752C100.369 174.68 101.125 174.608 101.845 174.518L101.953 175.886C98.5875 176.444 94.8255 176.498 91.9995 176.498L91.8015 174.968C92.4135 174.968 93.0975 174.968 93.7995 174.968V167.264H92.2155V165.77H101.197V167.264H99.6135ZM107.119 170.486V172.016H104.581V180.404H102.727V164.132H104.581V170.486H107.119ZM119.16 168.416V167.12H111.924V168.416H119.16ZM120.996 164.402V169.82H110.088V164.402H111.924V165.752H119.16V164.402H120.996ZM111.798 177.524V178.82H121.518V180.242H109.962V176.21H119.232V175.058H109.926V173.672H121.05V177.524H111.798ZM108.18 170.972H122.904V172.448H108.18V170.972ZM132.659 176.948H139.121V178.478H124.397V176.948H130.805V174.176H126.179V168.938H135.539V166.76H126.143V165.266H137.375V170.414H127.997V172.682H137.735V174.176H132.659V176.948ZM157.292 168.884V170.378H146.114V164.69H157.184V166.184H147.95V168.884H157.292ZM151.586 178.946C153.962 178.946 155.312 178.424 155.312 177.416C155.312 176.426 153.962 175.886 151.586 175.886C149.21 175.886 147.878 176.426 147.878 177.416C147.878 178.424 149.21 178.946 151.586 178.946ZM151.586 174.464C155.078 174.464 157.184 175.544 157.184 177.416C157.184 179.306 155.078 180.386 151.586 180.386C148.112 180.386 145.988 179.306 145.988 177.416C145.988 175.544 148.112 174.464 151.586 174.464ZM144.296 171.728H158.984V173.258H144.296V171.728ZM175.122 168.416V167.12H167.886V168.416H175.122ZM176.958 164.402V169.82H166.05V164.402H167.886V165.752H175.122V164.402H176.958ZM167.76 177.524V178.82H177.48V180.242H165.924V176.21H175.194V175.058H165.888V173.672H177.012V177.524H167.76ZM164.142 170.972H178.866V172.448H164.142V170.972ZM191.446 167.822V166.202H182.086V164.708H193.336V169.226H183.994V170.972H193.696V172.484H182.122V167.822H191.446ZM195.082 173.942V175.436H188.62V180.422H186.748V175.436H180.34V173.942H195.082ZM205.881 170.828L206.079 172.34C203.955 172.772 202.029 172.88 198.501 172.88H197.187V165.338H204.423V166.832H199.041V171.368C202.155 171.35 203.901 171.242 205.881 170.828ZM205.143 174.014V174.536C205.143 176.624 207.267 178.388 210.417 178.874L209.697 180.332C207.195 179.918 205.197 178.73 204.225 177.02C203.235 178.73 201.237 179.918 198.753 180.332L198.015 178.874C201.165 178.388 203.289 176.624 203.289 174.536V174.014H205.143ZM209.247 168.542H211.551V170.072H209.247V174.86H207.393V164.132H209.247V168.542ZM226.717 169.82V173.6H224.971V164.438H226.717V168.308H228.427V164.15H230.191V174.122H228.427V169.82H226.717ZM224.593 171.584L223.603 172.97C222.163 172.412 221.155 171.332 220.543 170.036C219.949 171.53 218.887 172.79 217.321 173.474L216.349 172.052C218.527 171.062 219.625 169.028 219.625 167.174V165.122H221.425V167.174C221.425 168.974 222.487 170.756 224.593 171.584ZM224.773 178.964C227.059 178.964 228.427 178.406 228.427 177.416C228.427 176.408 227.059 175.85 224.773 175.85C222.487 175.85 221.119 176.408 221.119 177.416C221.119 178.406 222.487 178.964 224.773 178.964ZM224.773 174.428C228.157 174.428 230.281 175.544 230.281 177.416C230.281 179.27 228.157 180.386 224.773 180.386C221.389 180.386 219.265 179.27 219.265 177.416C219.265 175.544 221.389 174.428 224.773 174.428ZM244.247 173.708V168.884H240.953V167.372H244.247V164.114H246.101V173.708H244.247ZM242.285 171.602L241.295 173.06C239.549 172.43 238.289 171.206 237.587 169.622C236.867 171.422 235.499 172.844 233.537 173.546L232.565 172.052C235.175 171.17 236.597 168.974 236.597 166.598V164.996H238.469V166.508C238.469 168.758 239.819 170.792 242.285 171.602ZM240.683 178.928C242.987 178.928 244.319 178.334 244.319 177.272C244.319 176.21 242.987 175.616 240.683 175.616C238.379 175.616 237.065 176.21 237.065 177.272C237.065 178.334 238.379 178.928 240.683 178.928ZM240.683 174.158C244.085 174.158 246.173 175.31 246.173 177.272C246.173 179.234 244.085 180.386 240.683 180.386C237.299 180.386 235.211 179.234 235.211 177.272C235.211 175.31 237.299 174.158 240.683 174.158ZM252.202 171.8L251.662 173.582H255.28L254.758 171.8C254.308 170.36 253.912 168.884 253.516 167.39H253.426C253.048 168.902 252.634 170.36 252.202 171.8ZM247.918 179L252.31 165.734H254.722L259.114 179H256.9L255.784 175.22H251.176L250.042 179H247.918ZM260.501 179V165.734H262.589V179H260.501ZM273.13 176.948H279.592V178.478H264.868V176.948H271.276V174.176H266.65V168.938H276.01V166.76H266.614V165.266H277.846V170.414H268.468V172.682H278.206V174.176H273.13V176.948ZM296.251 164.114H298.123V180.422H296.251V164.114ZM285.613 165.464H287.449V169.604H291.571V165.464H293.425V176.552H285.613V165.464ZM287.449 171.08V175.058H291.571V171.08H287.449ZM308.256 178.964C310.632 178.964 311.982 178.46 311.982 177.47C311.982 176.498 310.632 175.976 308.256 175.976C305.88 175.976 304.548 176.498 304.548 177.47C304.548 178.46 305.88 178.964 308.256 178.964ZM308.256 174.554C311.766 174.554 313.854 175.616 313.854 177.47C313.854 179.342 311.766 180.386 308.256 180.386C304.764 180.386 302.658 179.342 302.658 177.47C302.658 175.616 304.764 174.554 308.256 174.554ZM306.276 170.378V172.034H310.272V170.378C309.678 170.468 309.012 170.522 308.292 170.522C307.572 170.522 306.87 170.468 306.276 170.378ZM308.292 165.842C305.862 165.842 304.404 166.418 304.404 167.462C304.404 168.506 305.862 169.1 308.292 169.1C310.704 169.1 312.162 168.506 312.162 167.462C312.162 166.418 310.704 165.842 308.292 165.842ZM312.126 172.034H315.636V173.51H300.93V172.034H304.422V169.874C303.198 169.352 302.496 168.524 302.496 167.462C302.496 165.554 304.728 164.402 308.292 164.402C311.838 164.402 314.088 165.554 314.088 167.462C314.088 168.524 313.368 169.352 312.126 169.892V172.034ZM324.49 165.77C321.97 165.77 320.62 166.256 320.62 167.192C320.62 168.11 321.97 168.596 324.49 168.596C327.01 168.596 328.36 168.11 328.36 167.192C328.36 166.256 327.01 165.77 324.49 165.77ZM324.49 169.982C320.836 169.982 318.694 168.992 318.694 167.192C318.694 165.374 320.836 164.384 324.49 164.384C328.126 164.384 330.286 165.374 330.286 167.192C330.286 168.992 328.126 169.982 324.49 169.982ZM320.746 177.47V178.82H330.466V180.242H318.91V176.156H328.18V174.986H318.874V173.582H329.998V177.47H320.746ZM317.128 170.936H331.852V172.412H317.128V170.936ZM345.758 167.624H348.62V164.132H350.492V172.466H348.62V169.136H345.758V167.624ZM346.622 170.936L345.758 172.376C343.94 171.8 342.608 170.63 341.906 169.172C341.186 170.792 339.8 172.124 337.892 172.736L336.992 171.296C339.476 170.468 340.952 168.452 340.952 166.526V166.364H337.532V164.87H346.226V166.364H342.824V166.544C342.824 168.38 344.228 170.18 346.622 170.936ZM341.762 178.766H351.032V180.224H339.926V175.958H348.656V174.662H339.908V173.204H350.492V177.326H341.762V178.766ZM353.875 165.104H361.453C361.453 169.316 358.663 172.268 353.857 173.546L353.137 172.07C356.935 171.062 359.149 169.082 359.455 166.616H353.875V165.104ZM357.367 175.472V178.694H364.081V175.472H357.367ZM355.531 180.188V173.996H365.917V180.188H355.531ZM368.221 167.894V169.424H365.917V173.294H364.063V164.114H365.917V167.894H368.221ZM374.159 175.364C375.473 175.364 376.427 174.464 376.427 173.096C376.427 171.728 375.473 170.828 374.159 170.828C372.845 170.828 371.891 171.728 371.891 173.096C371.891 174.464 372.845 175.364 374.159 175.364ZM374.159 169.298C376.481 169.298 378.191 170.882 378.191 173.096C378.191 175.328 376.481 176.894 374.159 176.894C371.819 176.894 370.127 175.328 370.127 173.096C370.127 170.882 371.819 169.298 374.159 169.298ZM375.059 164.384V166.634H378.857V168.146H369.335V166.634H373.205V164.384H375.059ZM384.545 170.666V172.214H382.043V180.404H380.171V164.132H382.043V170.666H384.545ZM390.61 165.626V168.47C390.61 171.098 391.6 173.852 393.778 175.22L392.734 176.66C391.258 175.76 390.286 174.176 389.728 172.358C389.152 174.356 388.09 176.066 386.524 177.02L385.39 175.616C387.694 174.248 388.81 171.332 388.81 168.56V165.626H390.61ZM394.426 169.82V164.438H396.172V179.63H394.426V171.332H392.032V169.82H394.426ZM397.738 164.132H399.502V180.386H397.738V164.132ZM407.114 173.348V176.876H411.218V173.33C410.588 173.492 409.886 173.564 409.166 173.564C408.446 173.564 407.744 173.492 407.114 173.348ZM409.166 166.526C406.7 166.526 404.99 167.606 404.99 169.316C404.99 171.044 406.7 172.124 409.166 172.124C411.614 172.124 413.324 171.044 413.324 169.316C413.324 167.606 411.614 166.526 409.166 166.526ZM413.072 176.876H416.546V178.388H401.822V176.876H405.26V172.646C403.964 171.926 403.19 170.756 403.19 169.316C403.19 166.724 405.692 165.068 409.166 165.068C412.622 165.068 415.142 166.724 415.142 169.316C415.142 170.756 414.368 171.908 413.072 172.646V176.876ZM55.652 203.364C56.966 203.364 57.92 202.464 57.92 201.096C57.92 199.728 56.966 198.828 55.652 198.828C54.338 198.828 53.384 199.728 53.384 201.096C53.384 202.464 54.338 203.364 55.652 203.364ZM55.652 197.298C57.974 197.298 59.684 198.882 59.684 201.096C59.684 203.328 57.974 204.894 55.652 204.894C53.312 204.894 51.62 203.328 51.62 201.096C51.62 198.882 53.312 197.298 55.652 197.298ZM56.552 192.384V194.634H60.35V196.146H50.828V194.634H54.698V192.384H56.552ZM66.038 198.666V200.214H63.536V208.404H61.664V192.132H63.536V198.666H66.038ZM69.5286 193.716V202.788C71.7246 202.77 74.0646 202.59 76.5306 202.086L76.7466 203.616C73.9926 204.156 71.4726 204.336 69.0246 204.336H67.6746V193.716H69.5286ZM82.1646 198.468V199.998H79.6986V208.386H77.8446V192.132H79.6986V198.468H82.1646ZM88.5532 193.266C91.0912 193.266 92.9812 194.868 92.9812 197.172C92.9812 199.476 91.0912 201.078 88.5532 201.078C86.0152 201.078 84.1432 199.476 84.1432 197.172C84.1432 194.868 86.0152 193.266 88.5532 193.266ZM88.5532 194.85C87.0592 194.85 85.9612 195.75 85.9612 197.172C85.9612 198.576 87.0592 199.494 88.5532 199.494C90.0652 199.494 91.1632 198.576 91.1632 197.172C91.1632 195.75 90.0652 194.85 88.5532 194.85ZM94.8172 192.114H96.6892V208.404H94.8172V192.114ZM83.6212 204.966L83.3872 203.436C86.3032 203.436 90.3532 203.418 93.8452 202.896L93.9712 204.246C90.3892 204.93 86.5012 204.966 83.6212 204.966ZM104.493 196.11L114.267 195.84C114.285 195.336 114.285 194.832 114.285 194.328H104.907V192.834H116.121V194.292C116.121 195.822 116.121 197.478 115.671 199.656L113.835 199.512C114.015 198.684 114.105 197.928 114.177 197.226L104.745 197.64L104.493 196.11ZM106.869 203.346V206.64H116.427V208.134H105.015V203.346H106.869ZM110.811 200.61H117.867V202.104H103.215V200.61H108.939V198.432H110.811V200.61ZM133.147 192.132V204.318H131.383V192.132H133.147ZM128.251 203.922V198.162H126.325V196.65H128.251V192.456H129.979V203.922H128.251ZM126.883 199.926L127.063 201.402C125.209 201.744 123.661 201.798 121.141 201.798H120.079V193.446H126.217V194.94H121.861V196.848H125.605V198.288H121.861V200.322C123.913 200.304 125.281 200.232 126.883 199.926ZM124.363 206.568H133.597V208.08H122.491V202.986H124.363V206.568ZM136.998 202.446L136.296 200.916C139.68 200.412 141.912 198.378 142.002 196.074H136.908V194.562H142.02V192.456H143.874V194.562H148.968V196.074H143.892C143.982 198.378 146.214 200.412 149.598 200.916L148.896 202.446C146.16 201.96 144 200.61 142.938 198.702C141.876 200.61 139.716 201.96 136.998 202.446ZM135.594 204.876H150.318V206.406H135.594V204.876ZM162.827 194.904V193.806H153.629V192.528H164.663V196.11H155.483V197.262H164.951V198.558H153.665V194.904H162.827ZM155.357 205.686V206.928H165.203V208.206H153.521V204.48H162.881V203.328H153.485V202.05H164.717V205.686H155.357ZM151.775 199.584H166.517V200.952H151.775V199.584ZM173.204 201.834H176.858V198.36C176.858 197.64 176.912 196.524 176.948 195.786H176.876C176.552 196.47 176.192 197.154 175.814 197.838L173.204 201.834ZM176.858 207V203.436H171.116V202.05L176.39 193.734H178.802V201.834H180.476V203.436H178.802V207H176.858ZM182.372 193.842H189.914C189.914 198.558 187.898 202.734 182.588 205.416L181.562 203.994C185.54 201.96 187.682 199.098 188.06 195.354H182.372V193.842ZM196.628 198.54V200.088H194.162V208.368H192.308V192.114H194.162V198.54H196.628ZM203.772 195.282V196.83C203.772 199.53 205.446 202.338 207.984 203.418L206.958 204.876C205.068 204.048 203.61 202.284 202.854 200.178C202.134 202.446 200.676 204.372 198.768 205.29L197.706 203.814C200.226 202.644 201.9 199.62 201.9 196.83V195.282H198.282V193.752H207.39V195.282H203.772ZM209.28 192.132H211.152V208.386H209.28V192.132ZM231.718 198.126L230.998 199.62C228.298 199.188 226.084 197.82 225.022 195.948C223.978 197.838 221.728 199.188 219.028 199.62L218.308 198.126C221.62 197.658 224.032 195.66 224.032 193.518V192.654H225.994V193.518C225.994 195.624 228.442 197.658 231.718 198.126ZM232.348 201.15V202.662H225.886V208.404H224.032V202.662H217.66V201.15H232.348ZM236.288 202.572H247.25V208.404H245.396V204.084H236.288V202.572ZM245.396 192.132H247.25V201.744H245.396V192.132ZM238.484 193.068C240.95 193.068 242.786 194.67 242.786 196.974C242.786 199.278 240.95 200.88 238.484 200.88C236 200.88 234.164 199.278 234.164 196.974C234.164 194.67 236 193.068 238.484 193.068ZM238.484 194.634C237.026 194.634 235.982 195.552 235.982 196.974C235.982 198.396 237.026 199.314 238.484 199.314C239.924 199.314 240.986 198.396 240.986 196.974C240.986 195.552 239.924 194.634 238.484 194.634ZM253.513 194.904V199.728H261.253V194.904H253.513ZM258.319 204.876H264.781V206.388H250.057V204.876H256.465V201.204H251.695V193.428H263.071V201.204H258.319V204.876ZM280.098 192.132V200.718H278.334V192.132H280.098ZM272.25 195.642H275.166V192.438H276.894V200.592H275.166V197.082H272.25V195.642ZM273.816 198.252L273.96 199.728C272.088 200.07 270.558 200.106 268.056 200.106H266.976V192.996H273.204V194.472H268.812V198.63C270.828 198.612 272.196 198.54 273.816 198.252ZM271.026 206.73H280.638V208.188H269.19V204.03H278.262V202.806H269.154V201.366H280.098V205.398H271.026V206.73ZM290.716 204.948H297.178V206.478H282.454V204.948H288.862V202.176H284.236V196.938H293.596V194.76H284.2V193.266H295.432V198.414H286.054V200.682H295.792V202.176H290.716V204.948ZM311.894 193.5V194.85H302.606V193.5H306.332V191.988H308.204V193.5H311.894ZM305.126 197.784C305.126 198.504 305.954 198.936 307.25 198.936C308.546 198.936 309.374 198.504 309.374 197.784C309.374 197.046 308.546 196.596 307.25 196.596C305.954 196.596 305.126 197.046 305.126 197.784ZM312.344 200.772L312.488 202.068C309.05 202.68 305.252 202.698 302.408 202.716L302.192 201.24C303.416 201.24 304.838 201.24 306.332 201.204V200.124C304.496 199.926 303.38 199.062 303.38 197.784C303.38 196.272 304.91 195.354 307.25 195.354C309.59 195.354 311.12 196.272 311.12 197.784C311.12 199.062 310.004 199.908 308.204 200.124V201.132C309.608 201.06 311.03 200.97 312.344 200.772ZM304.208 205.326V203.85H315.062V208.404H313.208V205.326H304.208ZM317.294 196.938V198.468H315.062V203.13H313.208V192.15H315.062V196.938H317.294ZM328.074 199.782L327.174 201.222C325.356 200.646 324.06 199.476 323.358 197.964C322.638 199.692 321.27 201.078 319.326 201.744L318.39 200.286C320.946 199.404 322.368 197.316 322.368 195.102V194.778H318.912V193.284H327.642V194.778H324.24V195.084C324.24 197.1 325.59 198.99 328.074 199.782ZM325.986 206.928C328.254 206.928 329.568 206.352 329.568 205.308C329.568 204.246 328.254 203.688 325.986 203.688C323.718 203.688 322.404 204.246 322.404 205.308C322.404 206.352 323.718 206.928 325.986 206.928ZM325.986 202.23C329.334 202.23 331.404 203.364 331.404 205.308C331.404 207.234 329.334 208.386 325.986 208.386C322.638 208.386 320.568 207.234 320.568 205.308C320.568 203.364 322.638 202.23 325.986 202.23ZM331.224 196.092H333.528V197.622H331.224V201.852H329.37V192.132H331.224V196.092ZM339.467 203.364C340.781 203.364 341.735 202.464 341.735 201.096C341.735 199.728 340.781 198.828 339.467 198.828C338.153 198.828 337.199 199.728 337.199 201.096C337.199 202.464 338.153 203.364 339.467 203.364ZM339.467 197.298C341.789 197.298 343.499 198.882 343.499 201.096C343.499 203.328 341.789 204.894 339.467 204.894C337.127 204.894 335.435 203.328 335.435 201.096C335.435 198.882 337.127 197.298 339.467 197.298ZM340.367 192.384V194.634H344.165V196.146H334.643V194.634H338.513V192.384H340.367ZM349.853 198.666V200.214H347.351V208.404H345.479V192.132H347.351V198.666H349.853ZM355.918 193.626V196.47C355.918 199.098 356.908 201.852 359.086 203.22L358.042 204.66C356.566 203.76 355.594 202.176 355.036 200.358C354.46 202.356 353.398 204.066 351.832 205.02L350.698 203.616C353.002 202.248 354.118 199.332 354.118 196.56V193.626H355.918ZM359.734 197.82V192.438H361.48V207.63H359.734V199.332H357.34V197.82H359.734ZM363.046 192.132H364.81V208.386H363.046V192.132ZM372.422 201.348V204.876H376.526V201.33C375.896 201.492 375.194 201.564 374.474 201.564C373.754 201.564 373.052 201.492 372.422 201.348ZM374.474 194.526C372.008 194.526 370.298 195.606 370.298 197.316C370.298 199.044 372.008 200.124 374.474 200.124C376.922 200.124 378.632 199.044 378.632 197.316C378.632 195.606 376.922 194.526 374.474 194.526ZM378.38 204.876H381.854V206.388H367.13V204.876H370.568V200.646C369.272 199.926 368.498 198.756 368.498 197.316C368.498 194.724 371 193.068 374.474 193.068C377.93 193.068 380.45 194.724 380.45 197.316C380.45 198.756 379.676 199.908 378.38 200.646V204.876Z" fill="black"/>
<path d="M59.544 452.508L59.06 454.29H62.932L62.448 452.508C61.942 450.814 61.502 448.944 61.04 447.184H60.93C60.512 448.966 60.028 450.814 59.544 452.508ZM53.912 461L59.126 444.698H62.954L68.19 461H64.78L63.636 456.82H58.356L57.212 461H53.912ZM69.6558 461V444.698H72.9118V461H69.6558ZM76.3455 444.698H85.8935C85.8935 450.77 83.5835 455.984 76.8515 459.394L75.2235 457.172C79.9315 454.752 82.4395 451.54 82.9675 447.052H76.3455V444.698ZM94.1215 450.352V452.75H91.2835V462.848H88.3795V442.608H91.2835V450.352H94.1215ZM101.304 447.426L113.096 447.184C113.118 446.7 113.118 446.194 113.118 445.71H101.832V443.4H116V445.314C116 447.316 116 449.34 115.428 451.98L112.568 451.782C112.744 450.88 112.876 450.088 112.964 449.318L101.634 449.824L101.304 447.426ZM104.824 456.578V460.274H116.33V462.606H101.92V456.578H104.824ZM109.466 453.014H118.046V455.302H99.8081V453.014H106.562V450.55H109.466V453.014ZM136.832 442.63V457.766H134.082V442.63H136.832ZM130.1 457.326V450.462H128.12V448.152H130.1V443.026H132.806V457.326H130.1ZM128.692 452.222L128.934 454.488C126.646 454.906 124.732 454.95 121.74 454.95H120.354V444.192H127.966V446.48H123.148V448.438H127.262V450.616H123.148V452.662C125.282 452.64 126.866 452.53 128.692 452.222ZM126.25 460.23H137.338V462.54H123.346V456.16H126.25V460.23ZM141.055 455.588L139.977 453.234C144.575 452.596 146.841 450.132 147.039 447.734H140.945V445.424H147.083V442.938H149.987V445.424H156.125V447.734H150.031C150.229 450.132 152.495 452.596 157.093 453.234L156.015 455.588C152.429 455.06 149.877 453.432 148.535 451.254C147.193 453.432 144.641 455.06 141.055 455.588ZM139.361 458.206H157.709V460.56H139.361V458.206ZM177.585 442.608H180.489V462.936H177.585V442.608ZM164.693 444.236H167.575V449.142H171.799V444.236H174.681V458.206H164.693V444.236ZM167.575 451.408V455.896H171.799V451.408H167.575ZM192.61 460.714C195.316 460.714 196.702 460.252 196.702 459.218C196.702 458.184 195.316 457.744 192.61 457.744C189.904 457.744 188.518 458.184 188.518 459.218C188.518 460.252 189.904 460.714 192.61 460.714ZM192.61 455.544C196.988 455.544 199.65 456.864 199.65 459.218C199.65 461.572 196.988 462.914 192.61 462.914C188.232 462.914 185.592 461.572 185.592 459.218C185.592 456.864 188.232 455.544 192.61 455.544ZM190.52 450.55V452.244H194.744V450.572C194.106 450.638 193.402 450.682 192.654 450.682C191.884 450.682 191.18 450.638 190.52 450.55ZM192.654 445.138C189.904 445.138 188.32 445.688 188.32 446.832C188.32 447.932 189.904 448.504 192.654 448.504C195.426 448.504 197.01 447.932 197.01 446.832C197.01 445.688 195.426 445.138 192.654 445.138ZM197.648 452.244H201.806V454.532H183.502V452.244H187.616V449.802C186.164 449.142 185.328 448.13 185.328 446.832C185.328 444.412 188.188 442.938 192.654 442.938C197.142 442.938 200.002 444.412 200.002 446.832C200.002 448.152 199.144 449.164 197.648 449.824V452.244ZM218.8 446.766H221.88V442.63H224.784V452.926H221.88V449.076H218.8V446.766ZM219.922 450.682L218.58 452.948C216.336 452.31 214.818 450.99 213.916 449.318C213.014 451.144 211.386 452.684 209.032 453.366L207.668 451.1C210.814 450.132 212.31 447.778 212.42 445.688H208.438V443.378H219.328V445.688H215.368C215.456 447.734 216.864 449.802 219.922 450.682ZM214.312 460.428H225.356V462.672H211.452V457.106H221.902V455.984H211.408V453.74H224.784V459.196H214.312V460.428ZM228.391 443.796H237.983C237.983 449.186 234.573 452.838 228.567 454.4L227.423 452.112C231.933 450.99 234.397 448.768 234.815 446.106H228.391V443.796ZM233.297 457.018V460.384H240.733V457.018H233.297ZM230.459 462.65V454.73H243.593V462.65H230.459ZM246.277 447.03V449.406H243.593V453.916H240.689V442.63H243.593V447.03H246.277ZM258.177 454.048L255.339 453.806C255.801 450.924 255.867 448.746 255.867 446.942H248.299V444.632H258.727V446.282C258.727 448.24 258.727 450.704 258.177 454.048ZM253.755 450.44V456.336C255.713 456.27 257.693 456.138 259.541 455.918L259.695 458.008C255.581 458.712 251.049 458.8 247.529 458.822L247.265 456.446C248.387 456.446 249.619 456.446 250.895 456.424V450.44H253.755ZM266.097 450.77V453.19H263.369V462.87H260.465V442.608H263.369V450.77H266.097ZM289.449 449.824L288.349 452.156C284.807 451.628 282.277 449.978 280.979 447.8C279.681 449.978 277.129 451.628 273.587 452.156L272.487 449.824C277.107 449.186 279.417 446.568 279.417 444.192V443.224H282.519V444.192C282.519 446.546 284.851 449.186 289.449 449.824ZM290.109 453.652V456.006H282.343V462.914H279.439V456.006H271.805V453.652H290.109ZM294.596 455.456H308.412V462.914H305.486V457.766H294.596V455.456ZM305.486 442.652H308.412V454.532H305.486V442.652ZM297.368 443.73C300.514 443.73 302.89 445.82 302.89 448.702C302.89 451.584 300.514 453.652 297.368 453.652C294.266 453.652 291.868 451.584 291.868 448.702C291.868 445.82 294.266 443.73 297.368 443.73ZM297.368 446.194C295.85 446.194 294.706 447.118 294.706 448.702C294.706 450.264 295.85 451.21 297.368 451.21C298.908 451.21 300.052 450.264 300.052 448.702C300.052 447.118 298.908 446.194 297.368 446.194ZM313.14 451.21L312.172 448.944C316 448.614 317.98 447.272 318.442 445.886H313.052V443.576H328.034V445.886H322.622C323.084 447.272 325.064 448.614 328.914 448.944L327.902 451.21C324.096 450.858 321.588 449.45 320.532 447.514C319.454 449.45 316.968 450.858 313.14 451.21ZM320.488 460.67C323.194 460.67 324.58 460.186 324.58 459.13C324.58 458.074 323.194 457.612 320.488 457.612C317.782 457.612 316.396 458.074 316.396 459.13C316.396 460.186 317.782 460.67 320.488 460.67ZM320.488 455.368C324.866 455.368 327.528 456.754 327.528 459.13C327.528 461.528 324.866 462.892 320.488 462.892C316.11 462.892 313.47 461.528 313.47 459.13C313.47 456.754 316.11 455.368 320.488 455.368ZM311.38 451.98H329.684V454.268H311.38V451.98ZM334.61 447.316V455.94C336.502 455.896 338.218 455.786 340.154 455.434L340.374 457.788C337.91 458.25 335.754 458.338 333.158 458.338H331.75V444.962H339.252V447.316H334.61ZM345.808 442.608H348.558V462.892H345.808V452.75H343.982V461.946H341.276V443.004H343.982V450.418H345.808V442.608ZM363.353 446.964V448.086C363.353 451.386 364.981 454.884 368.369 456.292L366.785 458.58C364.431 457.568 362.825 455.588 361.923 453.146C361.021 455.786 359.393 458.008 357.017 459.086L355.367 456.776C358.755 455.258 360.405 451.54 360.405 448.086V446.964H356.181V444.566H367.533V446.964H363.353ZM369.403 442.63H372.307V462.892H369.403V442.63ZM385.659 454.4H389.465V442.63H392.369V457.986H389.465V456.38H385.659V454.4ZM381.765 445.424C380.401 445.424 379.455 445.952 379.455 446.942C379.455 447.932 380.401 448.438 381.765 448.438C383.107 448.438 384.053 447.932 384.053 446.942C384.053 445.952 383.107 445.424 381.765 445.424ZM381.765 450.55C378.795 450.55 376.727 449.098 376.727 446.942C376.727 444.786 378.795 443.312 381.765 443.312C384.713 443.312 386.803 444.786 386.803 446.942C386.803 449.098 384.713 450.55 381.765 450.55ZM380.687 460.23H392.809V462.54H377.783V456.512H380.599V453.806C378.817 453.894 377.123 453.916 375.605 453.916L375.231 451.606C378.927 451.584 383.855 451.54 388.123 450.99L388.321 453.058C386.737 453.322 385.109 453.498 383.481 453.63V457.458H380.687V460.23Z" fill="white"/>
<path d="M108.51 505.225L107.835 506.5C105.63 506.05 103.725 504.64 102.84 502.78C101.955 504.64 100.05 506.05 97.845 506.5L97.185 505.225C99.855 504.73 102.03 502.645 102.03 500.5V499.48H103.665V500.5C103.665 502.66 105.84 504.745 108.51 505.225ZM96.765 509.14H109.035V510.415H96.765V509.14ZM111.074 499.96H117.374C117.374 503.995 116.084 507.58 111.134 510.055L110.294 508.84C112.679 507.655 114.149 506.245 114.974 504.58L110.594 504.985L110.384 503.65L115.454 503.335C115.649 502.675 115.769 501.97 115.829 501.22H111.074V499.96ZM119.744 498.61H121.289V512.155H119.744V498.61ZM125.458 501.16V507.55H128.743V501.16H125.458ZM123.928 508.78V499.93H130.273V508.78H123.928ZM136.063 503.905V505.18H133.948V512.17H132.403V498.61H133.948V503.905H136.063ZM141.726 501.16V507.55H145.011V501.16H141.726ZM140.196 508.78V499.93H146.541V508.78H140.196ZM152.331 503.905V505.18H150.216V512.17H148.671V498.61H150.216V503.905H152.331ZM154.129 503.95L162.394 503.635C162.424 502.915 162.424 502.225 162.424 501.535V501.145H154.504V499.9H163.939V501.535C163.939 503.5 163.939 505.36 163.339 508.21L161.809 508.075C162.094 506.86 162.244 505.795 162.319 504.805L154.324 505.21L154.129 503.95ZM153.079 509.125H165.319V510.4H153.079V509.125ZM176.118 510.745V509.245H170.373V510.745H176.118ZM176.118 508.045V506.515H177.648V511.99H168.843V506.515H170.373V508.045H176.118ZM170.148 504.28C171.318 504.28 172.188 503.515 172.188 502.375C172.188 501.22 171.318 500.485 170.148 500.485C168.948 500.485 168.093 501.22 168.093 502.375C168.093 503.515 168.948 504.28 170.148 504.28ZM176.103 498.61H177.648V505.87H176.103V502.99H173.598C173.328 504.52 171.948 505.555 170.148 505.555C168.108 505.555 166.608 504.25 166.608 502.375C166.608 500.515 168.108 499.21 170.148 499.21C171.933 499.21 173.298 500.215 173.598 501.73H176.103V498.61ZM185.897 499.375C188.717 499.375 190.877 500.905 190.877 503.2C190.877 505.51 188.717 507.025 185.897 507.025C183.062 507.025 180.917 505.51 180.917 503.2C180.917 500.905 183.062 499.375 185.897 499.375ZM185.897 500.65C183.887 500.65 182.417 501.64 182.417 503.2C182.417 504.76 183.887 505.75 185.897 505.75C187.892 505.75 189.377 504.76 189.377 503.2C189.377 501.64 187.892 500.65 185.897 500.65ZM179.777 509.17H192.047V510.445H179.777V509.17ZM200.011 509.29H205.396V510.565H193.126V509.29H198.466V506.98H194.611V502.615H202.411V500.8H194.581V499.555H203.941V503.845H196.126V505.735H204.241V506.98H200.011V509.29ZM212.199 505L211.749 506.485H214.764L214.329 505C213.954 503.8 213.624 502.57 213.294 501.325H213.219C212.904 502.585 212.559 503.8 212.199 505ZM208.629 511L212.289 499.945H214.299L217.959 511H216.114L215.184 507.85H211.344L210.399 511H208.629ZM218.965 511V499.945H220.705V511H218.965ZM223.264 499.42H229.414C229.414 502.93 227.089 505.36 223.174 506.47L222.544 505.24C225.649 504.4 227.479 502.765 227.749 500.68H223.264V499.42ZM226.369 508.06V510.745H232.159V508.06H226.369ZM224.854 511.99V506.83H233.674V511.99H224.854ZM232.129 498.595H233.674V506.275H232.129V503.245H229.444V501.97H232.129V498.595ZM242.583 504.865L241.758 506.035C240.558 505.54 239.718 504.625 239.223 503.53C238.728 504.775 237.843 505.825 236.553 506.395L235.728 505.21C237.543 504.385 238.458 502.66 238.458 501.115V499.39H239.958V501.115C239.958 502.63 240.828 504.16 242.583 504.865ZM238.083 508.735V507.49H247.263V512.17H245.718V508.735H238.083ZM245.793 498.61H247.263V506.815H245.793V503.29H244.368V506.74H242.913V498.835H244.368V502.03H245.793V498.61ZM259.946 504.805L259.136 506.02C257.681 505.495 256.601 504.46 256.031 503.185C255.431 504.655 254.321 505.825 252.761 506.395L251.936 505.165C254.066 504.43 255.221 502.585 255.221 500.635V499.3H256.781V500.755C256.781 502.495 257.936 504.145 259.946 504.805ZM258.281 510.94C260.171 510.94 261.266 510.475 261.266 509.605C261.266 508.765 260.171 508.285 258.281 508.285C256.391 508.285 255.296 508.765 255.296 509.605C255.296 510.475 256.391 510.94 258.281 510.94ZM258.281 507.07C261.086 507.07 262.796 508.015 262.796 509.605C262.796 511.21 261.086 512.155 258.281 512.155C255.491 512.155 253.766 511.21 253.766 509.605C253.766 508.015 255.491 507.07 258.281 507.07ZM262.646 501.955H264.566V503.23H262.646V506.74H261.101V498.595H262.646V501.955ZM269.829 500.47C268.659 500.47 267.819 501.085 267.819 502.03C267.819 502.99 268.659 503.605 269.829 503.605C271.014 503.605 271.839 502.99 271.839 502.03C271.839 501.085 271.014 500.47 269.829 500.47ZM269.829 504.88C267.804 504.88 266.334 503.71 266.334 502.03C266.334 500.365 267.804 499.195 269.829 499.195C271.854 499.195 273.324 500.365 273.324 502.03C273.324 503.71 271.854 504.88 269.829 504.88ZM274.194 505.39L274.299 506.53C273.114 506.77 271.869 506.905 270.669 506.995V511.75H269.124V507.085C267.849 507.13 266.649 507.145 265.599 507.145L265.419 505.87C267.864 505.87 271.269 505.825 274.194 505.39ZM275.079 498.61H276.624V512.17H275.079V498.61ZM288.587 509.245H293.957V510.52H281.687V509.245H287.027V505.87H283.127V499.705H284.687V504.61H292.607V505.87H288.587V509.245ZM296.056 504.01L295.606 502.855C298.276 502.705 299.941 501.955 300.241 500.89H296.251V499.735H300.376V498.55H301.921V499.735H306.061V500.89H302.056C302.356 501.955 304.036 502.705 306.676 502.855L306.256 504.01C303.856 503.845 301.996 503.185 301.141 502.045C300.286 503.185 298.456 503.845 296.056 504.01ZM307.276 505.66H301.921V506.71H305.746V509.86H298.036V510.88H306.136V512.035H296.506V508.795H304.231V507.85H296.476V506.71H300.376V505.66H295.051V504.505H307.276V505.66ZM97.845 541.925L105.99 541.7C106.005 541.28 106.005 540.86 106.005 540.44H98.19V539.195H107.535V540.41C107.535 541.685 107.535 543.065 107.16 544.88L105.63 544.76C105.78 544.07 105.855 543.44 105.915 542.855L98.055 543.2L97.845 541.925ZM99.825 547.955V550.7H107.79V551.945H98.28V547.955H99.825ZM103.11 545.675H108.99V546.92H96.78V545.675H101.55V543.86H103.11V545.675ZM121.574 538.61V548.765H120.104V538.61H121.574ZM117.494 548.435V543.635H115.889V542.375H117.494V538.88H118.934V548.435H117.494ZM116.354 545.105L116.504 546.335C114.959 546.62 113.669 546.665 111.569 546.665H110.684V539.705H115.799V540.95H112.169V542.54H115.289V543.74H112.169V545.435C113.879 545.42 115.019 545.36 116.354 545.105ZM114.254 550.64H121.949V551.9H112.694V547.655H114.254V550.64ZM124.633 547.205L124.048 545.93C126.868 545.51 128.728 543.815 128.803 541.895H124.558V540.635H128.818V538.88H130.363V540.635H134.608V541.895H130.378C130.453 543.815 132.313 545.51 135.133 545.93L134.548 547.205C132.268 546.8 130.468 545.675 129.583 544.085C128.698 545.675 126.898 546.8 124.633 547.205ZM123.463 549.23H135.733V550.505H123.463V549.23ZM147.006 542.015H149.406V538.61H150.951V546.68H149.406V543.275H147.006V542.015ZM147.786 545.03L147.021 546.245C145.521 545.72 144.441 544.655 143.871 543.35C143.271 544.835 142.131 546.035 140.526 546.605L139.731 545.375C141.831 544.625 143.046 542.825 143.046 540.965V540.77H140.181V539.525H147.426V540.77H144.606V540.95C144.606 542.645 145.761 544.325 147.786 545.03ZM146.451 550.97C148.356 550.97 149.466 550.49 149.466 549.605C149.466 548.72 148.356 548.24 146.451 548.24C144.516 548.24 143.421 548.72 143.421 549.605C143.421 550.49 144.516 550.97 146.451 550.97ZM146.451 547.04C149.271 547.04 151.011 548 151.011 549.605C151.011 551.225 149.271 552.17 146.451 552.17C143.616 552.17 141.876 551.225 141.876 549.605C141.876 548 143.616 547.04 146.451 547.04ZM153.844 540.035H160.264C160.264 544.07 158.644 547.49 153.994 549.74L153.169 548.51C156.724 546.8 158.404 544.415 158.674 541.295H153.844V540.035ZM162.709 538.61H164.254V552.155H162.709V538.61ZM178.683 545.225V546.5H173.283V552.155H171.723V546.5H166.428V545.225H175.233C175.623 543.335 175.623 541.925 175.623 540.68H167.898V539.435H177.138V540.62C177.138 541.895 177.138 543.305 176.793 545.225H178.683ZM181.127 548.9V547.655H190.547V552.245H189.002V548.9H181.127ZM186.677 545.27H192.017V546.515H179.777V545.27H185.117V543.86H181.307V539.15H190.532V540.395H182.837V542.615H190.652V543.86H186.677V545.27ZM201.04 539.735V541.955C201.04 544.445 202.42 546.935 204.55 547.895L203.65 549.125C202.09 548.39 200.905 546.89 200.29 545.06C199.675 547.025 198.475 548.63 196.84 549.425L195.925 548.135C198.085 547.16 199.495 544.565 199.495 541.955V539.735H201.04ZM205.63 538.595H207.19V552.185H205.63V538.595ZM221.139 545.225L220.464 546.5C218.259 546.05 216.354 544.64 215.469 542.78C214.584 544.64 212.679 546.05 210.474 546.5L209.814 545.225C212.484 544.73 214.659 542.645 214.659 540.5V539.48H216.294V540.5C216.294 542.66 218.469 544.745 221.139 545.225ZM209.394 549.14H221.664V550.415H209.394V549.14ZM230.123 546.62V543.185H228.518V541.94H230.123V538.82H231.563V546.62H230.123ZM228.983 544.49L229.133 545.72C227.588 546.005 226.298 546.05 224.198 546.05H223.313V539.45H228.413V540.695H224.798V542.105H227.918V543.29H224.798V544.82C226.508 544.805 227.648 544.73 228.983 544.49ZM226.718 548.555V550.76H232.703V548.555H226.718ZM225.188 551.99V547.325H234.203V551.99H225.188ZM232.733 538.595H234.203V546.74H232.733V538.595ZM242.212 540.275C240.217 540.275 238.972 540.83 238.972 541.775C238.972 542.735 240.217 543.29 242.212 543.29C244.192 543.29 245.437 542.735 245.437 541.775C245.437 540.83 244.192 540.275 242.212 540.275ZM242.212 544.535C239.287 544.535 237.382 543.5 237.382 541.775C237.382 540.065 239.287 539.03 242.212 539.03C245.137 539.03 247.042 540.065 247.042 541.775C247.042 543.5 245.137 544.535 242.212 544.535ZM239.182 547.955V550.64H246.967V551.9H237.622V547.955H239.182ZM236.077 545.63H248.332V546.89H236.077V545.63ZM253.125 540.035H259.545C259.545 544.07 257.925 547.49 253.275 549.74L252.45 548.51C256.005 546.8 257.685 544.415 257.955 541.295H253.125V540.035ZM261.99 538.61H263.535V552.155H261.99V538.61ZM268.798 548.105V550.64H276.583V551.9H267.238V548.105H268.798ZM268.813 541.865V543.365H274.843V541.865H268.813ZM272.593 545.9H277.963V547.145H265.678V545.9H271.033V544.595H267.283V539.135H268.813V540.665H274.843V539.135H276.373V544.595H272.593V545.9ZM99.645 580.92V584.94H106.095V580.92H99.645ZM103.65 589.23H109.035V590.49H96.765V589.23H102.105V586.17H98.13V579.69H107.61V586.17H103.65V589.23ZM120.989 582.81V584.07H111.644V579.15H120.884V580.395H113.174V582.81H120.989ZM113.174 587.895V590.64H121.094V591.885H111.629V587.895H113.174ZM110.129 585.375H122.384V586.635H110.129V585.375ZM128.317 585.045V587.76C129.982 587.745 131.122 587.685 132.457 587.445L132.592 588.705C131.062 588.975 129.787 589.02 127.732 589.02H126.832V580.17H131.857V581.415H128.317V583.83H131.287V585.045H128.317ZM133.702 583.65V578.895H135.157V591.51H133.702V584.925H131.962V583.65H133.702ZM136.462 578.595H137.947V592.14H136.462V578.595ZM141.726 581.16V587.55H145.011V581.16H141.726ZM140.196 588.78V579.93H146.541V588.78H140.196ZM152.331 583.905V585.18H150.216V592.17H148.671V578.61H150.216V583.905H152.331ZM163.954 582.495V583.755H154.654V579.09H156.199V582.495H163.954ZM156.109 587.865V590.61H164.029V591.855H154.564V587.865H156.109ZM153.064 585.375H165.364V586.62H153.064V585.375ZM174.672 585.135V582.9H171.357V585.135H174.672ZM176.202 579.585V586.38H169.812V579.585H171.357V581.7H174.672V579.585H176.202ZM172.902 587.61V590.64H180.462V591.9H171.342V587.61H172.902ZM179.922 582.6H181.842V583.875H179.922V588.57H178.377V578.625H179.922V582.6ZM182.681 585.075H194.936V586.32H182.681V585.075ZM188.786 587.265C191.711 587.265 193.451 588.165 193.451 589.725C193.451 591.285 191.711 592.17 188.786 592.17C185.876 592.17 184.121 591.285 184.121 589.725C184.121 588.165 185.876 587.265 188.786 587.265ZM188.786 588.465C186.806 588.465 185.696 588.9 185.696 589.725C185.696 590.55 186.806 590.985 188.786 590.985C190.766 590.985 191.891 590.55 191.891 589.725C191.891 588.9 190.766 588.465 188.786 588.465ZM188.816 578.925C191.756 578.925 193.646 579.915 193.646 581.55C193.646 583.17 191.756 584.16 188.816 584.16C185.861 584.16 183.986 583.17 183.986 581.55C183.986 579.915 185.861 578.925 188.816 578.925ZM188.816 580.14C186.806 580.14 185.576 580.65 185.576 581.55C185.576 582.435 186.806 582.945 188.816 582.945C190.826 582.945 192.041 582.435 192.041 581.55C192.041 580.65 190.826 580.14 188.816 580.14ZM205.72 587.31V585.66H203.65V584.415H205.72V582.99H203.68V581.73H205.72V578.61H207.265V587.31H205.72ZM203.59 579.975V581.205H196.075V579.975H199.12V578.49H200.665V579.975H203.59ZM198.22 584.325C198.22 585.18 198.895 585.69 199.885 585.69C200.89 585.69 201.565 585.18 201.565 584.325C201.565 583.5 200.89 582.975 199.885 582.975C198.895 582.975 198.22 583.5 198.22 584.325ZM203.005 584.325C203.005 585.84 201.73 586.86 199.885 586.86C198.055 586.86 196.78 585.84 196.78 584.325C196.78 582.825 198.055 581.805 199.885 581.805C201.73 581.805 203.005 582.825 203.005 584.325ZM202.78 590.97C204.61 590.97 205.705 590.565 205.705 589.8C205.705 589.035 204.61 588.645 202.78 588.645C200.92 588.645 199.825 589.035 199.825 589.8C199.825 590.565 200.92 590.97 202.78 590.97ZM202.78 587.46C205.585 587.46 207.34 588.33 207.34 589.8C207.34 591.285 205.585 592.155 202.78 592.155C199.945 592.155 198.205 591.285 198.205 589.8C198.205 588.33 199.945 587.46 202.78 587.46ZM215.514 579.375C218.334 579.375 220.494 580.905 220.494 583.2C220.494 585.51 218.334 587.025 215.514 587.025C212.679 587.025 210.534 585.51 210.534 583.2C210.534 580.905 212.679 579.375 215.514 579.375ZM215.514 580.65C213.504 580.65 212.034 581.64 212.034 583.2C212.034 584.76 213.504 585.75 215.514 585.75C217.509 585.75 218.994 584.76 218.994 583.2C218.994 581.64 217.509 580.65 215.514 580.65ZM209.394 589.17H221.664V590.445H209.394V589.17ZM229.628 589.29H235.013V590.565H222.743V589.29H228.083V586.98H224.228V582.615H232.028V580.8H224.198V579.555H233.558V583.845H225.743V585.735H233.858V586.98H229.628V589.29ZM241.891 580.92V584.94H248.341V580.92H241.891ZM245.896 589.23H251.281V590.49H239.011V589.23H244.351V586.17H240.376V579.69H249.856V586.17H245.896V589.23ZM257.73 587.715V584.4H254.37V587.715H257.73ZM257.73 583.17V579.72H259.26V588.96H252.825V579.72H254.37V583.17H257.73ZM264.96 583.815V585.105H262.845V592.17H261.3V578.61H262.845V583.815H264.96ZM276.868 578.595V585.48H275.323V578.595H276.868ZM267.463 582.105C267.463 583.185 268.333 583.89 269.503 583.89C270.688 583.89 271.573 583.185 271.573 582.105C271.573 581.025 270.688 580.32 269.503 580.32C268.333 580.32 267.463 581.025 267.463 582.105ZM273.073 582.105C273.073 583.89 271.558 585.15 269.503 585.15C267.463 585.15 265.963 583.89 265.963 582.105C265.963 580.32 267.463 579.045 269.503 579.045C271.558 579.045 273.073 580.32 273.073 582.105ZM269.533 590.775H277.273V591.99H268.018V588.435H275.338V587.31H267.988V586.095H276.868V589.575H269.533V590.775ZM283.101 586.29L282.396 585.09C284.406 584.535 285.591 583.125 285.666 581.535H282.741V580.29H285.681V578.73H287.226V580.29H290.181V581.535H287.226C287.316 583.065 288.516 584.415 290.511 584.955L289.821 586.155C288.231 585.705 287.061 584.745 286.461 583.5C285.876 584.805 284.706 585.81 283.101 586.29ZM287.226 585.855V588.105C288.411 588.045 289.611 587.94 290.736 587.76L290.856 588.885C287.871 589.485 284.631 589.5 282.231 589.5L282.036 588.225C283.101 588.225 284.376 588.225 285.681 588.18V585.855H287.226ZM291.561 578.595H293.121V592.185H291.561V578.595ZM303.38 585.03L302.615 586.23C301.115 585.705 300.035 584.64 299.45 583.335C298.85 584.79 297.71 585.96 296.105 586.515L295.31 585.3C297.41 584.58 298.64 582.795 298.64 580.965V580.695H295.775V579.45H303.02V580.695H300.2V580.95C300.2 582.63 301.355 584.325 303.38 585.03ZM297.41 588.615V587.37H306.545V592.155H305V588.615H297.41ZM305 578.595H306.545V586.695H305V583.275H302.63V582H305V578.595ZM316.804 580.17V581.415H308.749V580.17H312.019V578.655H313.564V580.17H316.804ZM310.999 584.625C310.999 585.45 311.734 585.96 312.799 585.96C313.864 585.96 314.584 585.45 314.584 584.625C314.584 583.785 313.864 583.275 312.799 583.275C311.734 583.275 310.999 583.785 310.999 584.625ZM313.564 587.085V588.345C314.719 588.285 315.874 588.21 316.954 588.045L317.074 589.185C314.179 589.695 311.044 589.725 308.719 589.725L308.509 588.45C309.544 588.45 310.759 588.45 312.019 588.405V587.085C310.519 586.83 309.544 585.915 309.544 584.625C309.544 583.095 310.864 582.09 312.799 582.09C314.719 582.09 316.039 583.095 316.039 584.625C316.039 585.915 315.064 586.845 313.564 587.085ZM321.184 584.265V585.54H319.264V592.155H317.719V578.595H319.264V584.265H321.184ZM107.61 623.035V624.295H98.28V619.255H99.84V623.035H107.61ZM109.02 626.035V627.295H106.005V632.17H104.46V627.295H101.31V632.17H99.765V627.295H96.765V626.035H109.02ZM121.859 625.225L121.184 626.5C118.979 626.05 117.074 624.64 116.189 622.78C115.304 624.64 113.399 626.05 111.194 626.5L110.534 625.225C113.204 624.73 115.379 622.645 115.379 620.5V619.48H117.014V620.5C117.014 622.66 119.189 624.745 121.859 625.225ZM110.114 629.14H122.384V630.415H110.114V629.14ZM125.368 624.955V627.625C126.793 627.61 128.128 627.535 129.718 627.265L129.853 628.54C128.023 628.855 126.508 628.9 124.813 628.9H123.883V623.71H127.183V621.28H123.853V620.035H128.668V624.955H125.368ZM130.798 623.35V618.91H132.238V631.48H130.798V624.625H129.268V623.35H130.798ZM133.543 618.61H135.013V632.155H133.543V618.61ZM138.956 624.82V627.745C141.116 627.73 142.661 627.655 144.431 627.355L144.566 628.6C142.631 628.945 140.936 629.005 138.476 629.005H137.411V619.78H143.696V621.055H138.956V623.59H143.141V624.82H138.956ZM146.501 618.58H148.061V632.17H146.501V624.835H143.906V623.56H146.501V618.58ZM157.624 621.07V625.24H160.744V621.07H157.624ZM159.949 629.275H165.364V630.55H153.064V629.275H158.404V626.485H154.129V625.24H156.079V621.07H154.084V619.825H164.269V621.07H162.274V625.24H164.239V626.485H159.949V629.275ZM174.438 619.945V621.175H166.443V619.945H169.668V618.505H171.213V619.945H174.438ZM168.633 624.16C168.633 624.955 169.353 625.435 170.433 625.435C171.513 625.435 172.248 624.955 172.248 624.16C172.248 623.38 171.513 622.9 170.433 622.9C169.353 622.9 168.633 623.38 168.633 624.16ZM173.718 624.16C173.718 625.63 172.398 626.59 170.433 626.59C168.483 626.59 167.148 625.63 167.148 624.16C167.148 622.705 168.483 621.73 170.433 621.73C172.398 621.73 173.718 622.705 173.718 624.16ZM169.878 628.675V630.76H175.488V628.675H169.878ZM168.348 631.99V627.46H177.003V631.99H168.348ZM178.923 622.09V623.365H177.003V626.77H175.458V618.61H177.003V622.09H178.923ZM183.947 625.54V627.985C184.862 627.94 185.732 627.88 186.512 627.775L186.602 628.9C184.427 629.305 181.592 629.365 179.792 629.365L179.597 628.09C180.407 628.09 181.412 628.075 182.477 628.045V625.54H180.242V619.915H186.002V621.175H181.757V624.295H186.122V625.54H183.947ZM189.887 618.61H191.357V632.155H189.887V625.39H188.552V631.495H187.097V618.88H188.552V624.13H189.887V618.61ZM205.705 621.625H202.9V622.9H205.705V621.625ZM201.385 623.935V622.165H198.19V623.935H201.385ZM202.9 624.1V625.165H196.66V619.21H198.19V620.98H201.385V619.21H202.9V620.44H205.705V618.61H207.265V625.63H205.705V624.1H202.9ZM199.99 630.775H207.715V631.99H198.46V628.48H205.735V627.445H198.445V626.23H207.265V629.62H199.99V630.775ZM216.279 629.26H221.664V630.535H209.394V629.26H214.734V626.065H210.894V619.63H220.164V620.875H212.439V624.82H220.284V626.065H216.279V629.26ZM233.327 622.375V620.185H230.207V622.375H233.327ZM228.662 622.375V620.185H226.742V619H236.777V620.185H234.872V622.375H236.702V623.545H226.817V622.375H228.662ZM228.662 629.86V630.88H236.762V632.035H227.132V628.795H234.857V627.85H227.102V626.71H236.372V629.86H228.662ZM225.647 624.49H237.917V625.72H225.647V624.49ZM247.501 623.29V626.635H246.061V618.865H247.501V622.03H249.001V618.61H250.471V627.775H249.001V623.29H247.501ZM245.326 624.865L245.476 626.095C243.856 626.41 242.476 626.485 240.496 626.485H239.581V622.405H243.181V620.845H239.551V619.63H244.681V623.56H241.081V625.24C242.701 625.225 243.931 625.15 245.326 624.865ZM246.661 627.175V627.475C246.661 629.08 248.521 630.55 251.131 630.91L250.531 632.11C248.431 631.765 246.736 630.79 245.896 629.425C245.056 630.79 243.361 631.765 241.261 632.11L240.661 630.91C243.271 630.55 245.116 629.08 245.116 627.475V627.175H246.661ZM255.345 628.885V630.76H261.6V628.885H255.345ZM253.815 631.99V627.655H263.115V631.99H253.815ZM256.905 620.245V622.735H260.025V620.245H256.905ZM259.245 625.315H264.615V626.545H252.33V625.315H257.685V623.98H253.515V622.735H255.36V620.245H253.44V619H263.475V620.245H261.57V622.735H263.4V623.98H259.245V625.315ZM277.763 622.15V621.07H271.733V622.15H277.763ZM279.293 618.805V623.32H270.203V618.805H271.733V619.93H277.763V618.805H279.293ZM280.883 625.48H275.513V626.59H279.338V629.785H271.628V630.85H279.728V632.035H270.098V628.705H277.823V627.745H270.053V626.59H273.953V625.48H268.598V624.25H280.883V625.48ZM293.166 618.595V625.6H291.606V618.595H293.166ZM285.276 620.695V623.95C285.876 623.935 286.521 623.92 287.136 623.89V620.695H285.276ZM290.436 623.62L290.511 624.715C287.826 625.15 284.721 625.225 282.366 625.24L282.201 623.98C282.696 623.98 283.236 623.98 283.791 623.965V620.695H282.561V619.465H289.836V620.695H288.636V623.785C289.251 623.74 289.851 623.695 290.436 623.62ZM285.756 630.82H293.616V632.035H284.211V628.51H291.636V627.415H284.196V626.215H293.166V629.635H285.756V630.82ZM299.735 626.29V629.23H303.155V626.275C302.63 626.41 302.045 626.47 301.445 626.47C300.845 626.47 300.26 626.41 299.735 626.29ZM301.445 620.605C299.39 620.605 297.965 621.505 297.965 622.93C297.965 624.37 299.39 625.27 301.445 625.27C303.485 625.27 304.91 624.37 304.91 622.93C304.91 621.505 303.485 620.605 301.445 620.605ZM304.7 629.23H307.595V630.49H295.325V629.23H298.19V625.705C297.11 625.105 296.465 624.13 296.465 622.93C296.465 620.77 298.55 619.39 301.445 619.39C304.325 619.39 306.425 620.77 306.425 622.93C306.425 624.13 305.78 625.09 304.7 625.705V629.23ZM105.93 662.87V660.44H99.825V662.87H105.93ZM107.445 659.21V664.1H98.31V659.21H107.445ZM99.795 667.985V670.64H107.67V671.9H98.25V667.985H99.795ZM96.75 665.435H109.035V666.68H103.785V669.215H102.24V666.68H96.75V665.435ZM114.179 662.27V662.75C114.179 664.865 115.094 667.025 116.954 668.03L116.099 669.185C114.824 668.495 113.954 667.25 113.459 665.78C112.979 667.37 112.124 668.735 110.834 669.485L109.949 668.315C111.809 667.22 112.709 664.91 112.709 662.75V662.27H110.369V660.995H112.709V659.075H114.179V660.995H116.504V662.27H114.179ZM117.464 663.86V658.88H118.919V671.495H117.464V665.12H115.634V663.86H117.464ZM120.194 658.61H121.664V672.155H120.194V658.61ZM136.057 662.24H133.237V663.905H136.057V662.24ZM131.722 665.165V662.96H128.527V665.165H131.722ZM133.237 665.165V666.425H126.997V659.51H128.527V661.745H131.722V659.51H133.237V660.995H136.057V658.625H137.602V668.63H136.057V665.165H133.237ZM130.342 670.64H137.917V671.9H128.782V667.655H130.342V670.64ZM149.406 662.195H146.256C145.416 664.355 143.421 665.87 140.496 666.725L139.881 665.495C143.061 664.61 144.816 662.945 145.086 660.83H140.586V659.585H146.736C146.736 660.065 146.691 660.515 146.616 660.935H149.406V658.61H150.951V666.575H149.406V665.015H146.121V663.755H149.406V662.195ZM146.511 670.88C148.356 670.88 149.511 670.355 149.511 669.41C149.511 668.48 148.356 667.955 146.511 667.955C144.681 667.955 143.526 668.48 143.526 669.41C143.526 670.355 144.681 670.88 146.511 670.88ZM146.511 666.74C149.256 666.74 151.041 667.76 151.041 669.41C151.041 671.075 149.256 672.095 146.511 672.095C143.766 672.095 141.996 671.075 141.996 669.41C141.996 667.76 143.766 666.74 146.511 666.74ZM158.804 665L158.354 666.485H161.369L160.934 665C160.559 663.8 160.229 662.57 159.899 661.325H159.824C159.509 662.585 159.164 663.8 158.804 665ZM155.234 671L158.894 659.945H160.904L164.564 671H162.719L161.789 667.85H157.949L157.004 671H155.234ZM165.57 671V659.945H167.31V671H165.57ZM169.479 674L169.089 673.025C170.124 672.605 170.724 671.84 170.724 670.97C170.664 670.985 170.619 670.985 170.559 670.985C169.944 670.985 169.404 670.595 169.404 669.875C169.404 669.2 169.944 668.765 170.604 668.765C171.444 668.765 171.939 669.47 171.939 670.625C171.939 672.2 171.024 673.415 169.479 674ZM185.58 658.595H187.14V672.185H185.58V658.595ZM179.925 659.6C181.95 659.6 183.42 661.46 183.42 664.37C183.42 667.31 181.95 669.155 179.925 669.155C177.915 669.155 176.445 667.31 176.445 664.37C176.445 661.46 177.915 659.6 179.925 659.6ZM179.925 660.995C178.755 660.995 177.93 662.27 177.93 664.37C177.93 666.5 178.755 667.775 179.925 667.775C181.11 667.775 181.935 666.5 181.935 664.37C181.935 662.27 181.11 660.995 179.925 660.995ZM190.064 659.885H196.424V668.84H190.064V659.885ZM194.909 661.115H191.579V667.595H194.909V661.115ZM198.929 658.595H200.489V672.185H198.929V658.595ZM207.688 661.235V662.525C207.688 664.775 209.083 667.115 211.198 668.015L210.343 669.23C208.768 668.54 207.553 667.07 206.923 665.315C206.323 667.205 205.108 668.81 203.518 669.575L202.633 668.345C204.733 667.37 206.128 664.85 206.128 662.525V661.235H203.113V659.96H210.703V661.235H207.688ZM212.278 658.61H213.838V672.155H212.278V658.61ZM227.526 663.35V666.5H226.071V658.865H227.526V662.09H228.951V658.625H230.421V666.935H228.951V663.35H227.526ZM225.756 664.82L224.931 665.975C223.731 665.51 222.891 664.61 222.381 663.53C221.886 664.775 221.001 665.825 219.696 666.395L218.886 665.21C220.701 664.385 221.616 662.69 221.616 661.145V659.435H223.116V661.145C223.116 662.645 224.001 664.13 225.756 664.82ZM225.906 670.97C227.811 670.97 228.951 670.505 228.951 669.68C228.951 668.84 227.811 668.375 225.906 668.375C224.001 668.375 222.861 668.84 222.861 669.68C222.861 670.505 224.001 670.97 225.906 670.97ZM225.906 667.19C228.726 667.19 230.496 668.12 230.496 669.68C230.496 671.225 228.726 672.155 225.906 672.155C223.086 672.155 221.316 671.225 221.316 669.68C221.316 668.12 223.086 667.19 225.906 667.19ZM241.985 666.59V662.57H239.24V661.31H241.985V658.595H243.53V666.59H241.985ZM240.35 664.835L239.525 666.05C238.07 665.525 237.02 664.505 236.435 663.185C235.835 664.685 234.695 665.87 233.06 666.455L232.25 665.21C234.425 664.475 235.61 662.645 235.61 660.665V659.33H237.17V660.59C237.17 662.465 238.295 664.16 240.35 664.835ZM239.015 670.94C240.935 670.94 242.045 670.445 242.045 669.56C242.045 668.675 240.935 668.18 239.015 668.18C237.095 668.18 236 668.675 236 669.56C236 670.445 237.095 670.94 239.015 670.94ZM239.015 666.965C241.85 666.965 243.59 667.925 243.59 669.56C243.59 671.195 241.85 672.155 239.015 672.155C236.195 672.155 234.455 671.195 234.455 669.56C234.455 667.925 236.195 666.965 239.015 666.965ZM251.383 665L250.933 666.485H253.948L253.513 665C253.138 663.8 252.808 662.57 252.478 661.325H252.403C252.088 662.585 251.743 663.8 251.383 665ZM247.813 671L251.473 659.945H253.483L257.143 671H255.298L254.368 667.85H250.528L249.583 671H247.813ZM258.149 671V659.945H259.889V671H258.149ZM270.647 671C272.702 671 273.767 670.67 273.767 669.95C273.767 669.26 272.702 668.915 270.647 668.915C268.607 668.915 267.542 669.26 267.542 669.95C267.542 670.67 268.607 671 270.647 671ZM270.647 667.775C273.602 667.775 275.312 668.525 275.312 669.95C275.312 671.39 273.602 672.155 270.647 672.155C267.707 672.155 265.982 671.39 265.982 669.95C265.982 668.525 267.707 667.775 270.647 667.775ZM271.442 665.69H276.782V666.935H264.527V665.69H269.882V664.58H266.102V658.985H275.327V660.17H267.647V661.19H274.997V662.345H267.647V663.395H275.417V664.58H271.442V665.69ZM285.916 659.9V661.145H277.921V659.9H281.146V658.49H282.691V659.9H285.916ZM280.111 664.025C280.111 664.805 280.831 665.27 281.911 665.27C282.991 665.27 283.726 664.805 283.726 664.025C283.726 663.26 282.991 662.795 281.911 662.795C280.831 662.795 280.111 663.26 280.111 664.025ZM285.196 664.025C285.196 665.465 283.876 666.425 281.911 666.425C279.961 666.425 278.626 665.465 278.626 664.025C278.626 662.6 279.961 661.64 281.911 661.64C283.876 661.64 285.196 662.6 285.196 664.025ZM286.951 670.76V669.515H281.356V670.76H286.951ZM286.951 668.315V667.07H288.481V671.99H279.826V667.07H281.356V668.315H286.951ZM290.401 661.985V663.26H288.481V666.515H286.936V658.61H288.481V661.985H290.401ZM107.955 698.595V705.6H106.395V698.595H107.955ZM100.065 700.695V703.95C100.665 703.935 101.31 703.92 101.925 703.89V700.695H100.065ZM105.225 703.62L105.3 704.715C102.615 705.15 99.51 705.225 97.155 705.24L96.99 703.98C97.485 703.98 98.025 703.98 98.58 703.965V700.695H97.35V699.465H104.625V700.695H103.425V703.785C104.04 703.74 104.64 703.695 105.225 703.62ZM100.545 710.82H108.405V712.035H99V708.51H106.425V707.415H98.985V706.215H107.955V709.635H100.545V710.82ZM114.524 706.29V709.23H117.944V706.275C117.419 706.41 116.834 706.47 116.234 706.47C115.634 706.47 115.049 706.41 114.524 706.29ZM116.234 700.605C114.179 700.605 112.754 701.505 112.754 702.93C112.754 704.37 114.179 705.27 116.234 705.27C118.274 705.27 119.699 704.37 119.699 702.93C119.699 701.505 118.274 700.605 116.234 700.605ZM119.489 709.23H122.384V710.49H110.114V709.23H112.979V705.705C111.899 705.105 111.254 704.13 111.254 702.93C111.254 700.77 113.339 699.39 116.234 699.39C119.114 699.39 121.214 700.77 121.214 702.93C121.214 704.13 120.569 705.09 119.489 705.705V709.23ZM131.473 699.75V700.92H123.478V699.75H126.703V698.475H128.248V699.75H131.473ZM125.668 703.62C125.668 704.31 126.373 704.715 127.468 704.715C128.578 704.715 129.283 704.31 129.283 703.62C129.283 702.915 128.578 702.51 127.468 702.51C126.373 702.51 125.668 702.915 125.668 703.62ZM130.753 703.62C130.753 704.985 129.463 705.825 127.468 705.825C125.488 705.825 124.183 704.985 124.183 703.62C124.183 702.24 125.488 701.385 127.468 701.385C129.463 701.385 130.753 702.24 130.753 703.62ZM126.838 709.815V710.88H134.488V712.035H125.323V708.735H132.508V707.76H125.293V706.62H134.038V709.815H126.838ZM134.038 701.67H135.958V702.945H134.038V706.005H132.493V698.58H134.038V701.67ZM141.456 701.52V707.445C141.906 707.43 142.431 707.355 142.986 707.235L143.121 708.51C142.056 708.735 141.246 708.75 140.601 708.75H140.046V700.275H142.926V701.52H141.456ZM144.876 701.52V707.46C145.416 707.43 146.016 707.37 146.676 707.205L146.796 708.48C145.731 708.735 144.861 708.75 144.066 708.75H143.481V700.275H146.451V701.52H144.876ZM150.006 698.61H151.461V712.155H150.006V705.27H148.671V711.51H147.246V698.865H148.671V704.01H150.006V698.61ZM155.074 701.16V707.55H158.359V701.16H155.074ZM153.544 708.78V699.93H159.889V708.78H153.544ZM165.679 703.905V705.18H163.564V712.17H162.019V698.61H163.564V703.905H165.679ZM168.513 701.145V707.55C170.703 707.535 172.353 707.445 174.243 707.115L174.408 708.39C172.353 708.765 170.523 708.84 168.078 708.84H166.968V699.885H173.268V701.145H168.513ZM179.028 703.815V705.09H176.913V712.17H175.368V698.595H176.913V703.815H179.028ZM188.036 707.61V704.295H184.736V707.61H188.036ZM192.386 698.58L193.946 698.595V712.185H192.386V704.76H189.551V708.87H183.206V699.66H184.736V703.08H188.036V699.675H189.551V703.515H192.386V698.58ZM206.905 703.77V704.97H197.59V699.075H206.815V700.26H199.135V701.43H206.485V702.585H199.135V703.77H206.905ZM199.105 708.12V710.64H207.025V711.9H197.56V708.12H199.105ZM196.03 706.02H208.285V707.265H196.03V706.02ZM220.323 700.155V701.385H212.328V700.155H215.553V698.61H217.098V700.155H220.323ZM214.518 704.58C214.518 705.435 215.253 705.945 216.318 705.945C217.398 705.945 218.133 705.435 218.133 704.58C218.133 703.725 217.398 703.215 216.318 703.215C215.253 703.215 214.518 703.725 214.518 704.58ZM219.603 704.58C219.603 706.125 218.268 707.145 216.318 707.145C214.383 707.145 213.033 706.125 213.033 704.58C213.033 703.05 214.383 702.015 216.318 702.015C218.268 702.015 219.603 703.05 219.603 704.58ZM215.868 707.985V710.64H223.428V711.9H214.308V707.985H215.868ZM222.888 702.93H224.808V704.205H222.888V708.765H221.343V698.61H222.888V702.93ZM231.002 705.165V702.96H227.807V705.165H231.002ZM232.517 703.59V706.425H226.277V699.51H227.807V701.745H231.002V699.51H232.517V702.33H235.337V698.61H236.882V708.645H235.337V703.59H232.517ZM229.622 710.64H237.197V711.9H228.062V707.655H229.622V710.64ZM245.131 699.375C247.951 699.375 250.111 700.905 250.111 703.2C250.111 705.51 247.951 707.025 245.131 707.025C242.296 707.025 240.151 705.51 240.151 703.2C240.151 700.905 242.296 699.375 245.131 699.375ZM245.131 700.65C243.121 700.65 241.651 701.64 241.651 703.2C241.651 704.76 243.121 705.75 245.131 705.75C247.126 705.75 248.611 704.76 248.611 703.2C248.611 701.64 247.126 700.65 245.131 700.65ZM239.011 709.17H251.281V710.445H239.011V709.17ZM259.245 709.29H264.63V710.565H252.36V709.29H257.7V706.98H253.845V702.615H261.645V700.8H253.815V699.555H263.175V703.845H255.36V705.735H263.475V706.98H259.245V709.29ZM270.998 701.13V707.58C273.518 707.565 275.138 707.49 276.953 707.145L277.118 708.435C275.153 708.795 273.398 708.87 270.593 708.87H269.468V699.855H275.918V701.13H270.998ZM278.213 698.595H279.773V712.185H278.213V698.595ZM286.716 701.235V702.54C286.716 704.64 288.051 707.04 290.106 708.015L289.251 709.23C287.736 708.51 286.581 707.01 285.966 705.3C285.366 707.19 284.166 708.81 282.606 709.575L281.721 708.345C283.791 707.355 285.171 704.79 285.171 702.54V701.235H282.216V699.96H289.581V701.235H286.716ZM294.576 703.95V705.225H292.461V712.155H290.916V698.61H292.461V703.95H294.576ZM306.485 698.61V708.45H304.94V698.61H306.485ZM297.095 702.9C297.095 704.13 297.98 704.955 299.18 704.955C300.365 704.955 301.265 704.13 301.265 702.9C301.265 701.655 300.365 700.845 299.18 700.845C297.98 700.845 297.095 701.655 297.095 702.9ZM302.765 702.9C302.765 704.865 301.22 706.29 299.18 706.29C297.14 706.29 295.58 704.865 295.58 702.9C295.58 700.92 297.14 699.51 299.18 699.51C301.22 699.51 302.765 700.92 302.765 702.9ZM299.195 710.64H306.875V711.9H297.635V707.46H299.195V710.64ZM321.013 701.295V701.13H312.808V699.87H322.558V701.295C322.558 702.99 322.558 704.805 322.078 707.43L320.533 707.25C321.013 704.775 321.013 702.945 321.013 701.295ZM319.288 709.11H323.833V710.385H311.593V709.11H314.413V704.73H315.943V709.11H317.758V704.73H319.288V709.11ZM329.007 702.27V702.75C329.007 704.865 329.922 707.025 331.782 708.03L330.927 709.185C329.652 708.495 328.782 707.25 328.287 705.78C327.807 707.37 326.952 708.735 325.662 709.485L324.777 708.315C326.637 707.22 327.537 704.91 327.537 702.75V702.27H325.197V700.995H327.537V699.075H329.007V700.995H331.332V702.27H329.007ZM332.292 703.86V698.88H333.747V711.495H332.292V705.12H330.462V703.86H332.292ZM335.022 698.61H336.492V712.155H335.022V698.61Z" fill="white"/>
<g clip-path="url(#clip1_259_194)">
<path d="M66.4993 491.45C59.0559 491.45 53 497.506 53 504.949C53 512.393 59.0559 518.449 66.4993 518.449C73.9427 518.449 79.9986 512.393 79.9986 504.949C79.9986 497.506 73.9441 491.45 66.4993 491.45ZM74.2512 502.67L65.7696 511.152C65.409 511.512 64.93 511.711 64.4201 511.711C63.9102 511.711 63.4312 511.512 63.0706 511.152L58.7488 506.83C58.3882 506.469 58.1895 505.99 58.1895 505.48C58.1895 504.97 58.3882 504.491 58.7488 504.131C59.1094 503.77 59.5884 503.572 60.0983 503.572C60.6082 503.572 61.0872 503.77 61.4478 504.131L64.4201 507.103L71.5508 499.972C71.9114 499.612 72.3904 499.413 72.9003 499.413C73.4102 499.413 73.8892 499.612 74.2498 499.972C74.995 500.718 74.995 501.928 74.2498 502.673L74.2512 502.67Z" fill="white"/>
</g>
<g clip-path="url(#clip2_259_194)">
<path d="M66.4993 531.45C59.0559 531.45 53 537.506 53 544.949C53 552.393 59.0559 558.449 66.4993 558.449C73.9427 558.449 79.9986 552.393 79.9986 544.949C79.9986 537.506 73.9441 531.45 66.4993 531.45ZM74.2512 542.67L65.7696 551.152C65.409 551.512 64.93 551.711 64.4201 551.711C63.9102 551.711 63.4312 551.512 63.0706 551.152L58.7488 546.83C58.3882 546.469 58.1895 545.99 58.1895 545.48C58.1895 544.97 58.3882 544.491 58.7488 544.131C59.1094 543.77 59.5884 543.572 60.0983 543.572C60.6082 543.572 61.0872 543.77 61.4478 544.131L64.4201 547.103L71.5508 539.972C71.9114 539.612 72.3904 539.413 72.9003 539.413C73.4102 539.413 73.8892 539.612 74.2498 539.972C74.995 540.718 74.995 541.928 74.2498 542.673L74.2512 542.67Z" fill="white"/>
</g>
<g clip-path="url(#clip3_259_194)">
<path d="M66.4993 571.45C59.0559 571.45 53 577.506 53 584.949C53 592.393 59.0559 598.449 66.4993 598.449C73.9427 598.449 79.9986 592.393 79.9986 584.949C79.9986 577.506 73.9441 571.45 66.4993 571.45ZM74.2512 582.67L65.7696 591.152C65.409 591.512 64.93 591.711 64.4201 591.711C63.9102 591.711 63.4312 591.512 63.0706 591.152L58.7488 586.83C58.3882 586.469 58.1895 585.99 58.1895 585.48C58.1895 584.97 58.3882 584.491 58.7488 584.131C59.1094 583.77 59.5884 583.572 60.0983 583.572C60.6082 583.572 61.0872 583.77 61.4478 584.131L64.4201 587.103L71.5508 579.972C71.9114 579.612 72.3904 579.413 72.9003 579.413C73.4102 579.413 73.8892 579.612 74.2498 579.972C74.995 580.718 74.995 581.928 74.2498 582.673L74.2512 582.67Z" fill="white"/>
</g>
<g clip-path="url(#clip4_259_194)">
<path d="M66.4993 612.45C59.0559 612.45 53 618.506 53 625.949C53 633.393 59.0559 639.449 66.4993 639.449C73.9427 639.449 79.9986 633.393 79.9986 625.949C79.9986 618.506 73.9441 612.45 66.4993 612.45ZM74.2512 623.67L65.7696 632.152C65.409 632.512 64.93 632.711 64.4201 632.711C63.9102 632.711 63.4312 632.512 63.0706 632.152L58.7488 627.83C58.3882 627.469 58.1895 626.99 58.1895 626.48C58.1895 625.97 58.3882 625.491 58.7488 625.131C59.1094 624.77 59.5884 624.572 60.0983 624.572C60.6082 624.572 61.0872 624.77 61.4478 625.131L64.4201 628.103L71.5508 620.972C71.9114 620.612 72.3904 620.413 72.9003 620.413C73.4102 620.413 73.8892 620.612 74.2498 620.972C74.995 621.718 74.995 622.928 74.2498 623.673L74.2512 623.67Z" fill="white"/>
</g>
<g clip-path="url(#clip5_259_194)">
<path d="M66.4993 651.45C59.0559 651.45 53 657.506 53 664.949C53 672.393 59.0559 678.449 66.4993 678.449C73.9427 678.449 79.9986 672.393 79.9986 664.949C79.9986 657.506 73.9441 651.45 66.4993 651.45ZM74.2512 662.67L65.7696 671.152C65.409 671.512 64.93 671.711 64.4201 671.711C63.9102 671.711 63.4312 671.512 63.0706 671.152L58.7488 666.83C58.3882 666.469 58.1895 665.99 58.1895 665.48C58.1895 664.97 58.3882 664.491 58.7488 664.131C59.1094 663.77 59.5884 663.572 60.0983 663.572C60.6082 663.572 61.0872 663.77 61.4478 664.131L64.4201 667.103L71.5508 659.972C71.9114 659.612 72.3904 659.413 72.9003 659.413C73.4102 659.413 73.8892 659.612 74.2498 659.972C74.995 660.718 74.995 661.928 74.2498 662.673L74.2512 662.67Z" fill="white"/>
</g>
<g clip-path="url(#clip6_259_194)">
<path d="M66.4993 690C59.0559 690 53 696.056 53 703.499C53 710.943 59.0559 716.999 66.4993 716.999C73.9427 716.999 79.9986 710.943 79.9986 703.499C79.9986 696.056 73.9441 690 66.4993 690ZM74.2512 701.22L65.7696 709.702C65.409 710.062 64.93 710.261 64.4201 710.261C63.9102 710.261 63.4312 710.062 63.0706 709.702L58.7488 705.38C58.3882 705.019 58.1895 704.54 58.1895 704.03C58.1895 703.52 58.3882 703.041 58.7488 702.681C59.1094 702.32 59.5884 702.122 60.0983 702.122C60.6082 702.122 61.0872 702.32 61.4478 702.681L64.4201 705.653L71.5508 698.522C71.9114 698.162 72.3904 697.963 72.9003 697.963C73.4102 697.963 73.8892 698.162 74.2498 698.522C74.995 699.268 74.995 700.478 74.2498 701.223L74.2512 701.22Z" fill="white"/>
</g>
<path d="M131.776 66.904V65.752H121.6V66.904H131.776ZM136.896 60.504V70.648H116.48V60.504H121.6V62.04H131.776V60.504H136.896ZM121.28 85.08V86.104H137.856V89.912H116.16V81.592H132V80.696H116.096V76.952H137.12V85.08H121.28ZM113.12 71.768H140.32V75.768H113.12V71.768ZM160.798 66.552V64.856H144.99V60.824H166.078V70.36H150.302V72.088H166.846V76.12H145.022V66.552H160.798ZM169.118 77.848V81.912H158.078V90.104H152.894V81.912H141.95V77.848H169.118ZM187.547 71.448L188.027 75.512C184.603 76.28 181.211 76.44 174.203 76.44H171.579V62.008H185.115V66.072H176.731V72.344C181.851 72.28 184.603 72.088 187.547 71.448ZM187.291 78.296V78.904C187.291 81.656 189.339 85.016 196.347 85.912L194.395 89.912C189.627 89.24 186.491 87.352 184.731 84.888C182.939 87.352 179.835 89.24 175.067 89.912L173.115 85.912C180.123 85.016 182.139 81.656 182.139 78.904V78.296H187.291ZM194.555 67.512H198.299V71.672H194.555V79.864H189.371V59.992H194.555V67.512ZM209.113 61.912C213.849 61.912 217.529 65.112 217.529 69.464C217.529 73.848 213.849 77.048 209.113 77.048C204.409 77.048 200.729 73.848 200.729 69.464C200.729 65.112 204.409 61.912 209.113 61.912ZM209.113 66.296C207.257 66.296 205.785 67.352 205.785 69.464C205.785 71.608 207.257 72.664 209.113 72.664C211.001 72.664 212.473 71.608 212.473 69.464C212.473 67.352 211.001 66.296 209.113 66.296ZM219.737 59.96H224.921V90.104H219.737V59.96ZM200.217 84.28L199.641 80.152C204.825 80.152 212.025 80.088 218.265 79.224L218.617 82.904C212.217 84.184 205.337 84.28 200.217 84.28ZM236.103 61.848H250.471C250.471 70.104 245.639 75.704 236.711 78.136L234.631 74.008C240.807 72.408 244.103 69.432 244.807 65.912H236.103V61.848ZM248.903 86.136C252.167 86.136 254.023 85.4 254.023 83.8C254.023 82.168 252.167 81.432 248.903 81.432C245.607 81.432 243.751 82.168 243.751 83.8C243.751 85.4 245.607 86.136 248.903 86.136ZM248.903 77.464C254.983 77.464 259.143 79.928 259.143 83.8C259.143 87.64 254.983 90.104 248.903 90.104C242.791 90.104 238.631 87.64 238.631 83.8C238.631 79.928 242.791 77.464 248.903 77.464ZM258.823 66.616H262.567V70.808H258.823V77.048H253.639V59.992H258.823V66.616ZM282.116 72.984L279.588 76.984C276.388 75.992 274.308 74.008 273.028 71.544C271.716 74.264 269.476 76.408 266.052 77.528L263.46 73.432C268.164 71.928 269.956 68.632 270.244 65.368H264.804V61.304H280.996V65.368H275.652C275.94 68.408 277.668 71.512 282.116 72.984ZM273.924 82.328V85.72H284.1V82.328H273.924ZM268.836 89.72V78.328H289.156V89.72H268.836ZM283.972 60.024H289.156V77.24H283.972V70.744H280.164V66.616H283.972V60.024Z" fill="black"/>
<path d="M78.7167 63.4196C72.622 62.1422 67.8588 57.379 66.5823 51.2843C66.4252 50.5361 65.7654 50 65.0005 50C64.2356 50 63.5758 50.5361 63.4196 51.2843C62.1422 57.378 57.379 62.1412 51.2843 63.4186C50.5361 63.5758 50 64.2356 50 64.9995C50 65.7634 50.5361 66.4242 51.2843 66.5804C57.378 67.8578 62.1412 72.621 63.4186 78.7157C63.5758 79.4639 64.2356 80 64.9995 80C65.7634 80 66.4242 79.4639 66.5804 78.7157C67.8578 72.621 72.621 67.8588 78.7157 66.5814C79.4639 66.4242 80 65.7644 80 65.0005C80 64.2356 79.4639 63.5758 78.7157 63.4196H78.7167Z" fill="#0072F2"/>
<path d="M75.7281 89.9344C72.8847 89.3383 70.6617 87.1163 70.0656 84.2719C69.91 83.5309 69.2565 83 68.5 83C67.7434 83 67.089 83.5309 66.9344 84.2719C66.3383 87.1153 64.1153 89.3383 61.2719 89.9344C60.5309 90.09 60 90.7434 60 91.5C60 92.2565 60.5309 92.911 61.2719 93.0656C64.1153 93.6617 66.3383 95.8847 66.9344 98.7281C67.09 99.4691 67.7434 100 68.5 100C69.2565 100 69.911 99.4691 70.0656 98.7281C70.6617 95.8847 72.8847 93.6617 75.7281 93.0656C76.4691 92.91 77 92.2565 77 91.5C77 90.7434 76.4691 90.089 75.7281 89.9344Z" fill="#0072F2"/>
<path d="M96.7876 74.934C93.1235 74.1271 90.2603 71.1205 89.4928 67.2731C89.3445 66.5314 88.7216 66 88.0005 66C87.2793 66 86.6555 66.5314 86.5081 67.2731C85.7397 71.1205 82.8765 74.1271 79.2124 74.933C78.5061 75.0887 78 75.7428 78 76.5C78 77.2572 78.5061 77.9123 79.2124 78.067C82.8756 78.8739 85.7397 81.8804 86.5072 85.7269C86.6555 86.4686 87.2784 87 87.9995 87C88.7207 87 89.3445 86.4686 89.4919 85.7269C90.2603 81.8795 93.1235 78.8729 96.7876 78.067C97.4939 77.9113 98 77.2572 98 76.5C98 75.7428 97.4939 75.0877 96.7876 74.933V74.934Z" fill="#0072F2"/>
</g>
<rect x="0.5" y="0.5" width="586" height="832" rx="29.5" stroke="#E6E6E6"/>
<defs>
<filter id="filter0_d_259_194" x="-20" y="-16" width="627" height="873" filterUnits="userSpaceOnUse" color-interpolation-filters="sRGB">
<feFlood flood-opacity="0" result="BackgroundImageFix"/>
<feColorMatrix in="SourceAlpha" type="matrix" values="0 0 0 0 0 0 0 0 0 0 0 0 0 0 0 0 0 0 127 0" result="hardAlpha"/>
<feOffset dy="4"/>
<feGaussianBlur stdDeviation="10"/>
<feComposite in2="hardAlpha" operator="out"/>
<feColorMatrix type="matrix" values="0 0 0 0 0 0 0 0 0 0 0 0 0 0 0 0 0 0 0.05 0"/>
<feBlend mode="normal" in2="BackgroundImageFix" result="effect1_dropShadow_259_194"/>
<feBlend mode="normal" in="SourceGraphic" in2="effect1_dropShadow_259_194" result="shape"/>
</filter>
<linearGradient id="paint0_linear_259_194" x1="294.015" y1="65" x2="294.015" y2="891.005" gradientUnits="userSpaceOnUse">
<stop stop-color="#428DFF"/>
<stop offset="0.47" stop-color="#27D5DD"/>
<stop offset="0.975" stop-color="#CAA0FF"/>
</linearGradient>
<linearGradient id="paint1_linear_259_194" x1="294.015" y1="65" x2="294.015" y2="891.005" gradientUnits="userSpaceOnUse">
<stop stop-color="#428DFF"/>
<stop offset="0.47" stop-color="#27D5DD"/>
<stop offset="0.975" stop-color="#CAA0FF"/>
</linearGradient>
<linearGradient id="paint2_linear_259_194" x1="456.611" y1="479.537" x2="397.537" y2="538.611" gradientUnits="userSpaceOnUse">
<stop stop-color="#44AAFF"/>
<stop offset="1" stop-color="#27D5DD"/>
</linearGradient>
<linearGradient id="paint3_linear_259_194" x1="571.222" y1="573.407" x2="476.407" y2="668.222" gradientUnits="userSpaceOnUse">
<stop stop-color="#CAA0FF"/>
<stop offset="1" stop-color="#428DFF"/>
</linearGradient>
<clipPath id="clip0_259_194">
<rect width="587" height="833" rx="30" fill="white"/>
</clipPath>
<clipPath id="clip1_259_194">
<rect width="27" height="27" fill="white" transform="translate(53 491.45)"/>
</clipPath>
<clipPath id="clip2_259_194">
<rect width="27" height="27" fill="white" transform="translate(53 531.45)"/>
</clipPath>
<clipPath id="clip3_259_194">
<rect width="27" height="27" fill="white" transform="translate(53 571.45)"/>
</clipPath>
<clipPath id="clip4_259_194">
<rect width="27" height="27" fill="white" transform="translate(53 612.45)"/>
</clipPath>
<clipPath id="clip5_259_194">
<rect width="27" height="27" fill="white" transform="translate(53 651.45)"/>
</clipPath>
<clipPath id="clip6_259_194">
<rect width="27" height="27" fill="white" transform="translate(53 690)"/>
</clipPath>
</defs>
</svg>
