<svg width="1439" height="770" viewBox="0 0 1439 770" fill="none" xmlns="http://www.w3.org/2000/svg">
<path d="M210 85C210 102.106 196.106 116 179 116C161.894 116 148 102.106 148 85C148 67.8944 161.894 54 179 54C196.106 54 210 67.8944 210 85Z" fill="#1350F1"/>
<path d="M62 478C62 495.106 48.1056 509 31 509C13.8944 509 0 495.106 0 478C0 460.894 13.8944 447 31 447C48.1056 447 62 460.894 62 478Z" fill="#13C9F1"/>
<path d="M969 31C969 48.1056 955.106 62 938 62C920.894 62 907 48.1056 907 31C907 13.8944 920.894 0 938 0C955.106 0 969 13.8944 969 31Z" fill="#13C9F1"/>
<path d="M1018 516C1018 533.106 1004.11 547 987 547C969.894 547 956 533.106 956 516C956 498.894 969.894 485 987 485C1004.11 485 1018 498.894 1018 516Z" fill="#13C9F1"/>
<path d="M333 363C333 380.106 319.106 394 302 394C284.894 394 271 380.106 271 363C271 345.894 284.894 332 302 332C319.106 332 333 345.894 333 363Z" fill="#CAA0FF"/>
<path d="M1439 441C1439 458.106 1425.11 472 1408 472C1390.89 472 1377 458.106 1377 441C1377 423.894 1390.89 410 1408 410C1425.11 410 1439 423.894 1439 441Z" fill="#1350F1"/>
<path d="M1275 659C1275 676.106 1261.11 690 1244 690C1226.89 690 1213 676.106 1213 659C1213 641.894 1226.89 628 1244 628C1261.11 628 1275 641.894 1275 659Z" fill="#1350F1"/>
<path d="M490 759C490 776.106 476.106 790 459 790C441.894 790 428 776.106 428 759C428 741.894 441.894 728 459 728C476.106 728 490 741.894 490 759Z" fill="#13C9F1"/>
<path d="M1244 147C1244 164.106 1230.11 178 1213 178C1195.89 178 1182 164.106 1182 147C1182 129.894 1195.89 116 1213 116C1230.11 116 1244 129.894 1244 147Z" fill="#CAA0FF"/>
</svg>
