<svg width="1440" height="485" viewBox="0 0 1440 485" fill="none" xmlns="http://www.w3.org/2000/svg">
<path d="M322.451 456C300.303 456 276.054 449.628 251.49 437.098C229.423 425.839 209.314 410.591 193.723 393.704C123.353 390.406 86.3888 320.089 76.2427 280.228L73 267.474L98.5437 261L101.786 273.744C101.98 274.497 109.057 301.065 126.402 325.688C139.383 344.122 154.454 356.51 171.443 362.76C153.679 328.742 159.379 296.616 186.861 276.533C210.599 259.188 235.235 256.542 254.437 269.265C275.126 282.977 285.018 311.722 278.481 339.165C272.496 364.287 253.978 382.568 227.761 390.04C262.706 419.702 312.682 438.787 348.321 425.259L360.639 420.577L370.01 445.169L357.692 449.842C346.842 453.964 334.993 456 322.461 456H322.451ZM227.751 287.577C218.686 287.577 209.478 292.606 202.421 297.767C185.147 310.389 182.822 328.609 195.518 351.909C198.342 357.1 201.758 362.241 205.684 367.269C207.041 367.167 208.397 367.035 209.763 366.872C241.129 363.116 250.205 344.092 252.836 333.088C256.741 316.7 251.163 298.683 239.855 291.191C236 288.636 231.891 287.588 227.751 287.588V287.577Z" fill="#27D5DD"/>
<path d="M1403.14 227.072L1338.89 258.7C1320.99 267.511 1306.51 281.993 1297.7 299.887L1266.07 364.143L1234.44 299.887C1225.63 281.989 1211.15 267.507 1193.26 258.7L1129 227.072L1193.26 195.443C1211.15 186.632 1225.64 172.15 1234.44 154.256L1266.07 90L1297.7 154.256C1306.51 172.154 1320.99 186.636 1338.89 195.443L1403.14 227.072Z" fill="#CAA0FF"/>
<path d="M1196.6 79.8013L1173.26 91.2927C1166.75 94.4939 1161.49 99.7556 1158.29 106.257L1146.8 129.603L1135.31 106.257C1132.11 99.7543 1126.85 94.4926 1120.35 91.2927L1097 79.8013L1120.35 68.3099C1126.85 65.1087 1132.11 59.8471 1135.31 53.3456L1146.8 30L1158.29 53.3456C1161.49 59.8484 1166.76 65.1101 1173.26 68.3099L1196.6 79.8013Z" fill="#44AAFF"/>
</svg>
