<svg width="156" height="25" viewBox="0 0 156 25" fill="none" xmlns="http://www.w3.org/2000/svg">
<g clip-path="url(#clip0_79_304)">
<path d="M12.2359 25C18.9936 25 24.4718 19.4036 24.4718 12.5C24.4718 5.59644 18.9936 0 12.2359 0C5.4782 0 0 5.59644 0 12.5C0 19.4036 5.4782 25 12.2359 25Z" fill="#B2B2B2"/>
<path d="M31.3582 21.7054V18.4461H32.7815V7.4142H31.3582V4.17944H40.5136C44.5877 4.17944 46.5267 5.73536 46.5267 8.46787C46.5267 10.5752 45.9629 11.6008 44.1201 12.3524C45.8872 12.8546 47.3587 14.1823 47.3587 16.6162C47.3587 20.153 45.4197 21.7054 40.6821 21.7054H31.3547H31.3582ZM37.8629 7.48796V11.2495H39.3584C40.658 11.2495 41.0259 10.5225 41.0259 9.31783C41.0259 8.11313 40.3383 7.48796 39.4066 7.48796H37.8595H37.8629ZM39.826 18.4461C40.8574 18.4461 41.8132 17.6453 41.8132 16.2896C41.8132 15.0111 41.1015 14.0839 39.7504 14.0839H37.8595V18.4461H39.8226H39.826Z" fill="#B2B2B2"/>
<path d="M55.1424 21.7056H47.9741V18.4216H49.0296V6.13588H47.9982V2.90112H53.6915V18.4216H55.139V21.7056H55.1424Z" fill="#B2B2B2"/>
<path d="M55.634 9.16699H61.5749V15.2115C61.5749 17.368 61.8947 18.3725 62.8986 18.3725C63.7581 18.3725 64.4457 17.5963 64.4457 16.4654V12.479H62.8264V9.1705H69.1833V18.3725H70.3866V21.7056H65.7487L65.0851 20.1251C64.5454 20.7538 63.6859 22.0568 61.599 22.0568C57.8928 22.0568 56.6654 20.1005 56.6654 15.9386V12.479H55.634V9.1705V9.16699Z" fill="#B2B2B2"/>
<path d="M83.4407 19.974C81.6254 21.5791 79.6623 22.1551 77.1079 22.1551C74.0652 22.1551 70.6272 20.1742 70.6272 15.3589C70.6272 11.2461 73.522 8.81567 77.2282 8.81567C80.1471 8.81567 82.3818 10.3435 83.0934 12.4508C83.3891 13.3289 83.6573 15.2606 83.1416 16.6901H75.4095C75.5573 17.3679 75.8771 18.7447 77.9364 18.7447C78.7719 18.7447 80.0474 18.671 81.371 17.5435L83.4338 19.974H83.4407ZM75.492 14.2069H79.1982C79.1741 13.2551 78.9506 12.2015 77.3829 12.2015C75.8152 12.2015 75.5436 13.5818 75.492 14.2069Z" fill="#B2B2B2"/>
<path d="M92.5962 6.16047H91.4685V2.90112H97.5779V18.4462H98.7571V21.7056H93.0122L92.5962 20.7783C92.2764 21.0804 91.1969 21.9303 89.5019 21.9303C86.0433 21.9303 83.8086 18.7974 83.8086 15.3098C83.8086 11.3972 86.4834 8.91756 89.5019 8.91756C91.245 8.91756 92.1286 9.57083 92.5962 9.86937V6.15695V6.16047ZM90.8565 18.3971C91.8123 18.3971 92.6959 17.1678 92.5996 15.1869C92.5996 13.4799 91.7642 12.1769 90.8325 12.1769C89.8011 12.1769 89.0894 13.4062 89.0894 15.3098C89.0894 16.8166 89.777 18.3935 90.8565 18.3935V18.3971Z" fill="#B2B2B2"/>
<path d="M99.1524 15.3871C99.1764 11.2005 102.491 8.86841 105.877 8.86841C109.755 8.91758 112.626 11.2989 112.698 15.4889C112.746 19.6509 109.728 22.0322 105.997 22.0322C102.487 22.0322 99.1008 19.8265 99.1489 15.3871H99.1524ZM107.668 15.4854C107.668 13.6064 107.032 12.1488 105.877 12.1242C104.921 12.1242 104.182 13.5783 104.182 15.4082C104.182 17.4663 104.966 18.8185 105.997 18.8185C107.029 18.8185 107.665 17.3645 107.665 15.4819L107.668 15.4854Z" fill="#B2B2B2"/>
<path d="M113.094 9.16679H114.421V6.85926L118.938 5.38062V9.16679H121.269V12.4261H118.938V16.8902C118.938 17.7436 118.766 18.8956 119.722 18.8956C120.042 18.8956 120.802 18.6709 121.269 18.4707V21.6808C120.533 21.9829 118.862 22.1585 118.299 22.1585C114.617 22.1585 114.496 20.1039 114.421 16.8937V12.4296H113.094V9.1703V9.16679Z" fill="#B2B2B2"/>
<path d="M147.113 21.7054H137.27V18.4215H139.601L139.085 16.7146H134.055L133.539 18.4215H135.454V21.7054H127.65V18.4215H129.321L132.635 7.4142H131.628V4.17944H141.052L145.394 18.4215H147.113V21.7054ZM134.963 13.7081H138.177L136.558 8.29226L134.963 13.7081Z" fill="#B2B2B2"/>
<path d="M147.852 4.17944H156V7.48796H154.477V18.3688H156V21.7019H147.852V18.3688H149.399V7.48796H147.852V4.17944Z" fill="#B2B2B2"/>
<path d="M16.7019 13.7151C15.2786 11.0353 15.0173 10.7684 12.3906 9.31082C15.0138 7.85676 15.2751 7.58983 16.7019 4.90649C18.1252 7.58632 18.3865 7.85325 21.0132 9.31082C18.39 10.7649 18.1287 11.0318 16.7019 13.7151Z" fill="white"/>
</g>
<defs>
<clipPath id="clip0_79_304">
<rect width="156" height="25" fill="white"/>
</clipPath>
</defs>
</svg>
