<svg width="21" height="20" viewBox="0 0 21 20" fill="none" xmlns="http://www.w3.org/2000/svg">
<path fill-rule="evenodd" clip-rule="evenodd" d="M6.62545 0.0596729C7.69211 0.0116031 8.03295 0 10.7488 0C13.4646 0 13.8054 0.0116031 14.8721 0.0596729C16.4971 0.133435 17.9246 0.529597 19.0704 1.66918C20.2163 2.80877 20.6146 4.22849 20.6888 5.84463C20.7371 6.90549 20.7488 7.24446 20.7488 9.94549C20.7488 12.6465 20.7371 12.9855 20.6888 14.0463C20.6146 15.6625 20.2163 17.0822 19.0704 18.2218C17.9246 19.3614 16.4971 19.7575 14.8721 19.8313C13.8054 19.8794 13.4646 19.891 10.7488 19.891C8.03295 19.891 7.69211 19.8794 6.62545 19.8313C5.00045 19.7575 3.57295 19.3614 2.42711 18.2218C1.28128 17.0822 0.882946 15.6625 0.808779 14.0463C0.760446 12.9855 0.748779 12.6465 0.748779 9.94549C0.748779 7.24446 0.760446 6.90549 0.808779 5.84463C0.882946 4.22849 1.28128 2.80877 2.42711 1.66918C3.57295 0.529597 5.00045 0.133435 6.62545 0.0596729ZM14.7887 1.85001C13.7346 1.80194 13.4179 1.79199 10.7479 1.79199C8.07789 1.79199 7.76123 1.80194 6.70706 1.85001C5.56873 1.90139 4.51289 2.12848 3.70039 2.93655C2.88789 3.74462 2.65956 4.7947 2.60789 5.92683C2.55956 6.97525 2.54956 7.29019 2.54956 9.94564C2.54956 12.6011 2.55956 12.916 2.60789 13.9644C2.65956 15.0966 2.88789 16.1467 3.70039 16.9547C4.51289 17.7628 5.56873 17.9899 6.70706 18.0413C7.76123 18.0893 8.07789 18.0993 10.7479 18.0993C13.4179 18.0993 13.7346 18.0893 14.7887 18.0413C15.9271 17.9899 16.9829 17.7628 17.7954 16.9547C18.6079 16.1467 18.8362 15.0966 18.8879 13.9644C18.9362 12.916 18.9462 12.6011 18.9462 9.94564C18.9462 7.29019 18.9362 6.97525 18.8879 5.92683C18.8362 4.7947 18.6079 3.74462 17.7954 2.93655C16.9829 2.12848 15.9271 1.90139 14.7887 1.85001ZM5.61206 9.9449C5.61206 7.12453 7.91122 4.83789 10.7471 4.83789C13.5829 4.83789 15.882 7.12453 15.882 9.9449C15.882 12.7653 13.5829 15.0519 10.7471 15.0519C7.91122 15.0519 5.61206 12.7653 5.61206 9.9449ZM7.41284 9.94504C7.41284 11.7758 8.90534 13.2602 10.7462 13.2602C12.587 13.2602 14.0795 11.7758 14.0795 9.94504C14.0795 8.11425 12.587 6.62988 10.7462 6.62988C8.90534 6.62988 7.41284 8.11425 7.41284 9.94504ZM17.2855 4.63682C17.2855 5.29595 16.7482 5.83028 16.0855 5.83028C15.4228 5.83028 14.8855 5.29595 14.8855 4.63682C14.8855 3.97769 15.4228 3.44336 16.0855 3.44336C16.7482 3.44336 17.2855 3.97769 17.2855 4.63682Z" fill="#0A142F"/>
</svg>
