<svg width="20" height="16" viewBox="0 0 20 16" fill="none" xmlns="http://www.w3.org/2000/svg">
<path d="M17.7833 4.05368L17.7953 4.56028C17.7953 9.7334 13.8382 15.6933 6.60125 15.6933C4.38005 15.6933 2.3126 15.0457 0.570801 13.9351C0.878447 13.9708 1.19201 13.9907 1.50964 13.9907C3.35335 13.9907 5.04922 13.3649 6.39552 12.316C4.6737 12.2842 3.22148 11.1518 2.72012 9.59832C2.9618 9.644 3.20551 9.6659 3.46118 9.6659C3.82074 9.6659 4.16827 9.62022 4.49786 9.53082C2.69811 9.16923 1.34182 7.58991 1.34182 5.69469V5.64503C1.87314 5.93904 2.47838 6.11385 3.12357 6.13574C2.06889 5.43447 1.37376 4.23653 1.37376 2.87966C1.37376 2.16251 1.56753 1.49104 1.90508 0.912947C3.84466 3.28098 6.74502 4.83847 10.0149 5.00139C9.94699 4.71529 9.91309 4.41533 9.91309 4.10942C9.91309 1.94999 11.6749 0.197754 13.8482 0.197754C14.9787 0.197754 16.0015 0.672524 16.7205 1.4334C17.6154 1.25656 18.4584 0.930788 19.2194 0.483792C18.9258 1.39765 18.3026 2.16447 17.4896 2.64917C18.2826 2.55579 19.0437 2.3432 19.7488 2.03331C19.2215 2.81601 18.5523 3.50539 17.7833 4.05368Z" fill="#0A142F"/>
</svg>
