<svg width="64" height="64" viewBox="0 0 64 64" fill="none" xmlns="http://www.w3.org/2000/svg">
<path d="M32 64C49.6731 64 64 49.6731 64 32C64 14.3269 49.6731 0 32 0C14.3269 0 0 14.3269 0 32C0 49.6731 14.3269 64 32 64Z" fill="#3C72FF"/>
<path d="M35.5675 48.454H20.4375C15.5948 37.7344 25.2802 27.0203 20.4375 16.3008H34.4731C41.1544 16.3008 47.469 19.5183 46.9765 24.9355C46.692 28.1476 43.9286 30.7468 40.9573 31.8028C44.5853 32.35 46.4731 35.6332 46.0682 39.3377C45.417 45.1052 42.8288 48.454 35.5675 48.454ZM33.5265 23.48H31.8849C31.8166 25.5055 31.562 27.5204 31.1243 29.4991H32.7658C35.6605 29.4991 37.4115 28.4868 37.6906 26.3692C37.9697 24.2515 36.3062 23.48 33.5045 23.48H33.5265ZM33.127 35.283H29.8438C29.4104 37.2533 29.1558 39.2587 29.0832 41.2748H32.3664C35.365 41.2748 36.4485 40.1312 36.744 38.1449C37.0395 36.1585 35.7535 35.283 33.1051 35.283H33.127Z" fill="black"/>
</svg>
